<svg id="svg" version="1.1" width="400" height="149.33333333333334" viewBox="0 0 400 149.33333333333334" xmlns="http://www.w3.org/2000/svg" xmlns:xlink="http://www.w3.org/1999/xlink" ><g id="svgg"><path id="path0" d="M189.714 0.672 C 189.637 0.966,189.470 1.002,188.106 1.022 C 184.201 1.077,184.416 1.054,184.425 1.417 C 184.434 1.725,184.337 1.747,183.116 1.716 C 181.933 1.685,181.789 1.715,181.713 2.008 C 181.622 2.356,181.325 2.405,179.720 2.339 C 178.980 2.309,178.804 2.364,178.491 2.725 C 178.165 3.099,178.035 3.135,177.317 3.050 C 176.562 2.961,176.498 2.983,176.345 3.387 C 176.191 3.792,176.128 3.813,175.367 3.723 C 174.505 3.621,173.749 3.875,173.883 4.221 C 173.936 4.360,173.701 4.400,173.073 4.360 C 172.340 4.313,172.138 4.363,171.891 4.652 C 171.706 4.868,171.394 5.000,171.069 5.000 C 170.781 5.000,170.354 5.150,170.121 5.333 C 169.888 5.517,169.588 5.667,169.455 5.667 C 169.066 5.667,168.333 6.328,168.333 6.679 C 168.333 6.968,168.052 7.096,167.601 7.012 C 167.175 6.932,166.500 7.219,166.500 7.480 C 166.500 7.707,166.384 7.753,165.937 7.701 C 165.513 7.651,165.316 7.718,165.139 7.971 C 164.999 8.171,164.670 8.329,164.327 8.362 C 163.856 8.407,163.752 8.484,163.762 8.783 C 163.769 8.985,163.711 9.111,163.633 9.063 C 163.317 8.867,162.469 9.195,162.544 9.484 C 162.604 9.714,162.527 9.755,162.143 9.699 C 161.725 9.637,161.667 9.681,161.667 10.055 C 161.667 10.289,161.592 10.527,161.500 10.583 C 161.408 10.640,161.333 10.607,161.333 10.510 C 161.333 10.206,160.566 10.317,160.250 10.667 C 160.084 10.850,159.820 11.000,159.663 11.000 C 159.507 11.000,159.199 11.140,158.981 11.310 C 158.762 11.481,158.422 11.671,158.224 11.733 C 158.026 11.795,157.822 11.956,157.771 12.090 C 157.719 12.224,157.591 12.333,157.487 12.333 C 157.062 12.333,155.667 13.696,155.667 14.110 C 155.667 14.453,155.608 14.504,155.317 14.411 C 155.019 14.317,154.984 14.353,155.078 14.650 C 155.162 14.915,155.116 15.004,154.886 15.016 C 153.774 15.077,153.750 15.086,153.760 15.429 C 153.768 15.698,153.688 15.759,153.401 15.705 C 153.176 15.661,152.897 15.770,152.683 15.984 C 152.491 16.176,152.214 16.333,152.068 16.333 C 151.922 16.333,151.763 16.483,151.715 16.667 C 151.667 16.850,151.517 17.000,151.382 17.000 C 151.246 17.000,151.098 17.143,151.052 17.318 C 151.007 17.493,150.826 17.673,150.651 17.719 C 150.476 17.765,150.333 17.933,150.333 18.094 C 150.333 18.366,150.354 18.367,150.639 18.108 C 150.899 17.873,150.944 17.869,150.944 18.083 C 150.944 18.221,150.907 18.296,150.861 18.250 C 150.815 18.204,150.627 18.297,150.443 18.458 C 150.260 18.619,150.164 18.656,150.231 18.542 C 150.310 18.406,150.246 18.333,150.047 18.333 C 149.546 18.333,147.602 20.403,147.711 20.819 C 147.761 21.010,147.722 21.215,147.625 21.276 C 147.516 21.343,147.498 21.305,147.577 21.176 C 147.666 21.033,147.610 20.986,147.397 21.028 C 147.226 21.060,147.060 21.226,147.028 21.397 C 146.986 21.610,147.033 21.666,147.176 21.577 C 147.305 21.498,147.343 21.516,147.276 21.625 C 147.215 21.722,147.025 21.765,146.853 21.720 C 146.516 21.632,146.316 21.785,144.750 23.330 C 143.634 24.430,143.000 25.211,143.000 25.485 C 143.000 25.585,142.886 25.667,142.746 25.667 C 142.606 25.667,142.420 25.854,142.333 26.083 C 142.246 26.313,142.099 26.500,142.007 26.500 C 141.915 26.500,141.794 26.682,141.738 26.904 C 141.682 27.127,141.493 27.438,141.318 27.597 C 141.143 27.755,141.000 27.968,141.000 28.069 C 141.000 28.170,140.845 28.350,140.656 28.468 C 140.456 28.593,140.324 28.836,140.341 29.050 C 140.394 29.714,140.343 29.805,139.974 29.708 C 139.670 29.629,139.629 29.670,139.708 29.974 C 139.785 30.269,139.730 30.333,139.401 30.333 C 139.180 30.333,138.885 30.465,138.744 30.625 C 138.174 31.274,137.667 31.973,137.667 32.109 C 137.667 32.188,137.517 32.347,137.333 32.461 C 137.150 32.576,137.000 32.807,137.000 32.976 C 137.000 33.144,136.850 33.417,136.667 33.583 C 136.464 33.766,136.333 34.097,136.333 34.423 C 136.333 34.828,136.248 34.984,135.986 35.052 C 135.706 35.125,135.650 35.250,135.695 35.696 C 135.741 36.164,135.692 36.258,135.375 36.303 C 135.155 36.334,135.000 36.473,135.000 36.638 C 135.000 36.793,134.842 37.018,134.650 37.139 C 134.390 37.301,134.317 37.482,134.370 37.838 C 134.426 38.224,134.373 38.328,134.095 38.367 C 133.821 38.406,133.750 38.537,133.750 39.000 C 133.750 39.415,133.654 39.633,133.417 39.755 C 133.181 39.876,133.083 40.095,133.083 40.501 C 133.083 40.952,132.951 41.196,132.470 41.631 C 132.132 41.936,131.807 42.406,131.748 42.676 C 131.689 42.946,131.537 43.167,131.411 43.167 C 131.279 43.167,131.133 43.425,131.068 43.773 C 131.006 44.106,130.806 44.527,130.624 44.709 C 130.359 44.974,130.310 45.197,130.372 45.845 C 130.430 46.446,130.371 46.771,130.143 47.118 C 129.974 47.374,129.835 47.506,129.834 47.412 C 129.834 47.318,129.953 47.069,130.100 46.860 C 130.409 46.419,130.294 46.187,129.921 46.497 C 129.776 46.616,129.667 46.975,129.667 47.328 C 129.667 47.748,129.553 48.051,129.315 48.266 C 129.018 48.534,128.976 48.714,129.049 49.425 C 129.126 50.172,129.095 50.286,128.776 50.425 C 128.482 50.555,128.416 50.725,128.415 51.367 C 128.414 51.960,128.324 52.234,128.044 52.495 C 127.723 52.794,127.677 52.999,127.696 54.031 C 127.715 55.078,127.673 55.259,127.344 55.525 C 127.060 55.755,126.980 55.977,127.009 56.455 C 127.091 57.826,127.012 58.291,126.681 58.378 C 126.392 58.453,126.360 58.629,126.355 60.170 C 126.350 61.634,126.302 61.929,126.021 62.231 C 125.721 62.553,125.691 62.841,125.678 65.572 C 125.667 67.850,125.609 68.623,125.435 68.822 C 125.049 69.263,124.967 69.777,125.240 70.050 C 125.460 70.270,125.461 70.313,125.246 70.395 C 124.758 70.582,124.941 74.833,125.436 74.833 C 125.674 74.833,125.675 74.870,125.684 82.333 C 125.687 84.909,125.764 85.500,126.097 85.500 C 126.340 85.500,126.445 86.867,126.344 88.720 C 126.307 89.414,126.348 89.535,126.650 89.614 C 127.018 89.710,127.091 90.193,127.009 92.003 C 126.983 92.570,127.069 92.876,127.355 93.240 C 127.661 93.628,127.728 93.902,127.698 94.627 C 127.667 95.374,127.712 95.543,127.959 95.608 C 128.259 95.686,128.742 96.833,128.475 96.833 C 128.184 96.833,128.347 97.680,128.708 98.042 C 129.010 98.343,129.073 98.566,129.029 99.177 C 128.975 99.917,129.281 100.489,129.618 100.280 C 129.690 100.235,129.725 100.589,129.695 101.067 C 129.654 101.712,129.709 101.994,129.907 102.159 C 130.292 102.478,130.414 102.255,130.100 101.807 C 129.953 101.597,129.834 101.349,129.834 101.255 C 129.835 101.160,129.977 101.298,130.150 101.560 C 130.378 101.905,130.439 102.216,130.375 102.695 C 130.307 103.203,130.369 103.466,130.643 103.837 C 130.839 104.103,131.000 104.473,131.000 104.660 C 131.000 104.847,131.150 105.150,131.333 105.333 C 131.517 105.517,131.667 105.769,131.667 105.894 C 131.667 106.019,131.804 106.301,131.972 106.519 C 132.139 106.738,132.325 107.050,132.385 107.212 C 132.444 107.375,132.626 107.562,132.788 107.629 C 132.991 107.712,133.083 107.932,133.083 108.333 C 133.083 108.800,133.154 108.927,133.435 108.967 C 133.724 109.008,133.783 109.126,133.768 109.634 C 133.753 110.140,133.812 110.259,134.100 110.300 C 134.370 110.339,134.433 110.441,134.375 110.745 C 134.325 111.008,134.417 111.241,134.650 111.441 C 134.842 111.606,135.000 111.912,135.000 112.122 C 135.000 112.332,135.150 112.632,135.333 112.789 C 135.517 112.946,135.667 113.246,135.667 113.455 C 135.667 113.665,135.817 113.965,136.000 114.122 C 136.183 114.279,136.333 114.529,136.333 114.678 C 136.333 114.827,136.483 115.084,136.667 115.250 C 136.850 115.416,137.000 115.697,137.000 115.875 C 137.000 116.058,137.145 116.236,137.333 116.285 C 137.517 116.333,137.667 116.446,137.667 116.537 C 137.667 116.691,138.148 117.363,138.744 118.042 C 138.885 118.202,139.192 118.333,139.427 118.333 C 139.661 118.333,139.809 118.405,139.755 118.492 C 139.558 118.810,139.863 119.531,140.161 119.453 C 140.376 119.397,140.429 119.465,140.377 119.736 C 140.335 119.952,140.445 120.216,140.654 120.405 C 140.844 120.578,141.000 120.852,141.000 121.016 C 141.000 121.180,141.136 121.412,141.303 121.532 C 141.469 121.652,141.654 121.881,141.714 122.042 C 141.774 122.202,141.938 122.333,142.078 122.333 C 142.218 122.333,142.333 122.453,142.333 122.599 C 142.333 122.745,142.483 122.904,142.667 122.952 C 142.850 123.000,143.000 123.139,143.000 123.262 C 143.000 123.385,143.188 123.672,143.417 123.902 C 143.646 124.131,143.833 124.425,143.833 124.556 C 143.833 124.687,143.983 124.834,144.167 124.882 C 144.350 124.930,144.500 125.080,144.500 125.215 C 144.500 125.350,144.650 125.500,144.833 125.548 C 145.017 125.596,145.167 125.755,145.167 125.901 C 145.167 126.047,145.279 126.167,145.417 126.167 C 145.554 126.167,145.667 126.236,145.667 126.321 C 145.667 126.536,148.778 129.667,148.992 129.667 C 149.088 129.667,149.167 129.776,149.167 129.909 C 149.167 130.054,149.401 130.195,149.750 130.261 C 150.172 130.340,150.333 130.457,150.333 130.685 C 150.333 130.889,150.451 131.000,150.667 131.000 C 150.861 131.000,151.000 131.111,151.000 131.266 C 151.000 131.412,151.150 131.570,151.333 131.618 C 151.517 131.666,151.667 131.812,151.667 131.941 C 151.667 132.071,151.798 132.224,151.958 132.282 C 152.119 132.340,152.373 132.506,152.522 132.652 C 152.672 132.797,153.028 133.103,153.314 133.332 C 153.600 133.560,153.833 133.832,153.833 133.937 C 153.833 134.042,154.002 134.173,154.208 134.228 C 154.805 134.388,155.032 134.354,154.895 134.125 C 154.809 133.983,154.860 133.990,155.051 134.145 C 155.357 134.393,155.438 134.584,155.167 134.417 C 155.075 134.360,155.000 134.438,155.000 134.589 C 155.000 134.741,155.143 134.902,155.318 134.948 C 155.493 134.993,155.673 135.174,155.719 135.349 C 155.767 135.534,155.948 135.667,156.151 135.667 C 156.343 135.667,156.500 135.773,156.500 135.903 C 156.500 136.145,157.377 136.429,157.633 136.271 C 157.711 136.223,157.769 136.346,157.762 136.545 C 157.754 136.780,157.867 136.928,158.083 136.970 C 158.267 137.005,158.581 137.185,158.782 137.370 C 159.035 137.603,159.302 137.685,159.649 137.634 C 159.924 137.593,160.122 137.604,160.089 137.657 C 159.952 137.879,160.503 138.358,160.862 138.329 C 161.674 138.261,161.806 138.318,161.708 138.693 C 161.629 138.994,161.671 139.038,161.964 138.961 C 162.232 138.891,162.327 138.954,162.366 139.226 C 162.406 139.505,162.532 139.583,162.943 139.583 C 163.232 139.582,163.438 139.632,163.400 139.694 C 163.287 139.876,164.431 141.000,164.728 141.000 C 164.878 141.000,165.150 141.150,165.333 141.333 C 165.517 141.517,165.843 141.667,166.058 141.667 C 166.272 141.667,166.590 141.823,166.762 142.014 C 167.004 142.281,167.233 142.348,167.755 142.305 C 168.344 142.257,168.433 142.294,168.426 142.583 C 168.418 142.864,168.525 142.917,169.104 142.917 C 169.532 142.917,169.765 142.985,169.721 143.098 C 169.583 143.458,170.153 143.712,170.909 143.626 C 171.568 143.552,171.655 143.582,171.700 143.896 C 171.742 144.197,171.863 144.250,172.500 144.250 C 173.088 144.249,173.319 144.335,173.568 144.643 C 173.840 144.980,173.995 145.025,174.622 144.954 C 175.238 144.885,175.429 144.938,175.798 145.280 C 176.117 145.575,176.402 145.679,176.828 145.654 C 177.999 145.586,178.291 145.654,178.386 146.016 C 178.463 146.311,178.589 146.359,179.197 146.327 C 181.235 146.218,181.617 146.295,181.726 146.836 C 181.847 147.442,182.335 147.667,183.534 147.667 C 184.147 147.667,184.438 147.747,184.593 147.958 C 184.772 148.204,185.141 148.259,186.936 148.306 C 188.716 148.353,189.133 148.414,189.467 148.676 C 190.104 149.178,209.228 149.164,209.542 148.662 C 209.728 148.363,209.937 148.333,211.851 148.333 C 213.652 148.333,214.012 148.289,214.353 148.022 C 214.602 147.827,215.122 147.683,215.750 147.635 C 216.698 147.563,217.849 147.014,218.182 146.475 C 218.240 146.381,218.785 146.308,219.393 146.312 C 220.301 146.319,220.556 146.260,220.818 145.978 C 221.064 145.714,221.339 145.636,222.004 145.641 C 222.724 145.647,222.884 145.593,222.954 145.324 C 223.041 144.992,223.346 144.934,224.691 144.995 C 225.156 145.016,225.362 144.932,225.568 144.638 C 225.785 144.329,225.993 144.252,226.621 144.251 C 227.234 144.250,227.441 144.178,227.577 143.917 C 227.700 143.680,227.919 143.583,228.333 143.583 C 228.809 143.583,228.926 143.515,228.969 143.213 C 229.017 142.877,229.089 142.852,229.745 142.942 C 230.349 143.025,230.518 142.983,230.771 142.687 C 230.961 142.466,231.270 142.333,231.598 142.333 C 231.886 142.333,232.312 142.183,232.545 142.000 C 232.779 141.817,233.079 141.667,233.212 141.667 C 233.346 141.667,233.634 141.527,233.853 141.356 C 234.071 141.186,234.401 140.999,234.586 140.941 C 234.771 140.883,235.334 140.424,235.836 139.922 C 236.468 139.290,236.883 139.006,237.183 139.004 C 237.592 139.000,238.261 138.484,238.085 138.307 C 238.040 138.262,238.220 138.257,238.485 138.296 C 238.820 138.345,239.074 138.260,239.317 138.016 C 239.509 137.824,239.786 137.667,239.932 137.667 C 240.078 137.667,240.237 137.517,240.285 137.333 C 240.351 137.081,240.512 137.000,240.952 137.000 C 241.391 137.000,241.552 136.919,241.618 136.667 C 241.666 136.483,241.829 136.333,241.979 136.333 C 242.130 136.333,242.347 136.183,242.461 136.000 C 242.576 135.817,242.815 135.667,242.992 135.667 C 243.169 135.667,243.412 135.530,243.532 135.364 C 243.652 135.198,243.881 135.012,244.042 134.953 C 244.202 134.893,244.333 134.729,244.333 134.589 C 244.333 134.442,244.479 134.333,244.675 134.333 C 244.862 134.333,245.190 134.146,245.402 133.917 C 245.614 133.688,245.873 133.500,245.977 133.500 C 246.082 133.500,246.167 133.393,246.167 133.261 C 246.167 133.130,246.317 132.975,246.500 132.917 C 246.683 132.858,246.833 132.739,246.833 132.651 C 246.833 132.564,247.021 132.420,247.250 132.333 C 247.479 132.246,247.667 132.069,247.667 131.940 C 247.667 131.811,247.817 131.666,248.000 131.618 C 248.183 131.570,248.333 131.407,248.333 131.256 C 248.333 131.090,248.257 131.028,248.141 131.099 C 248.031 131.167,247.993 131.145,248.054 131.048 C 248.111 130.955,248.348 130.914,248.579 130.958 C 248.922 131.024,249.000 130.973,249.000 130.686 C 249.000 130.444,249.105 130.333,249.333 130.333 C 249.556 130.333,249.667 130.222,249.667 130.000 C 249.667 129.778,249.778 129.667,250.000 129.667 C 250.222 129.667,250.333 129.556,250.333 129.333 C 250.333 129.111,250.444 129.000,250.667 129.000 C 250.889 129.000,251.000 128.889,251.000 128.667 C 251.000 128.423,251.111 128.333,251.413 128.333 C 251.982 128.333,253.667 126.649,253.667 126.080 C 253.667 125.829,253.762 125.667,253.909 125.667 C 254.223 125.667,255.000 124.890,255.000 124.576 C 255.000 124.442,255.150 124.333,255.333 124.333 C 255.549 124.333,255.667 124.222,255.667 124.019 C 255.667 123.842,255.817 123.666,256.013 123.615 C 256.232 123.558,256.340 123.413,256.308 123.221 C 256.281 123.053,256.317 122.823,256.389 122.708 C 256.469 122.581,256.434 122.499,256.302 122.497 C 256.139 122.496,256.145 122.456,256.325 122.342 C 256.712 122.097,256.882 122.336,256.568 122.683 C 256.301 122.978,256.301 123.000,256.563 123.000 C 256.717 123.000,256.893 122.869,256.953 122.708 C 257.012 122.548,257.198 122.319,257.364 122.199 C 257.530 122.079,257.667 121.884,257.667 121.766 C 257.667 121.648,257.822 121.411,258.012 121.239 C 258.222 121.049,258.331 120.785,258.290 120.569 C 258.236 120.288,258.288 120.230,258.534 120.294 C 258.904 120.391,260.333 118.935,260.333 118.462 C 260.333 118.300,260.442 118.167,260.576 118.167 C 260.721 118.167,260.862 117.933,260.928 117.583 C 260.992 117.242,261.135 117.000,261.274 117.000 C 261.404 117.000,261.559 116.869,261.619 116.708 C 261.679 116.548,261.864 116.319,262.031 116.199 C 262.200 116.077,262.333 115.774,262.333 115.510 C 262.333 115.179,262.433 115.013,262.667 114.952 C 262.855 114.902,263.000 114.724,263.000 114.541 C 263.000 114.364,263.150 114.083,263.333 113.917 C 263.517 113.751,263.667 113.493,263.667 113.345 C 263.667 113.196,263.817 112.946,264.000 112.789 C 264.249 112.575,264.333 112.297,264.333 111.684 C 264.333 110.927,264.361 110.872,264.693 110.959 C 264.993 111.037,265.038 110.995,264.962 110.707 C 264.898 110.459,264.964 110.338,265.198 110.277 C 265.378 110.230,265.565 110.036,265.615 109.846 C 265.665 109.656,265.809 109.500,265.936 109.500 C 266.063 109.500,266.167 109.402,266.167 109.282 C 266.167 109.163,266.354 108.811,266.583 108.500 C 266.812 108.189,267.000 107.830,267.000 107.702 C 267.000 107.574,267.150 107.279,267.333 107.045 C 267.517 106.812,267.667 106.381,267.667 106.087 C 267.667 105.756,267.799 105.432,268.014 105.237 C 268.275 105.001,268.346 104.770,268.302 104.302 C 268.252 103.781,268.297 103.672,268.580 103.632 C 268.856 103.592,268.917 103.459,268.917 102.891 C 268.917 102.510,268.967 102.229,269.028 102.267 C 269.329 102.454,269.699 101.749,269.618 101.145 C 269.546 100.610,269.596 100.476,269.948 100.245 C 270.291 100.020,270.355 99.857,270.325 99.279 C 270.255 97.943,270.311 97.667,270.653 97.667 C 270.931 97.667,270.972 97.545,270.964 96.739 C 270.957 95.982,271.020 95.768,271.305 95.568 C 271.601 95.360,271.653 95.156,271.646 94.229 C 271.639 93.303,271.691 93.098,271.985 92.891 C 272.177 92.757,272.333 92.506,272.333 92.334 C 272.333 92.161,272.402 91.977,272.487 91.925 C 272.571 91.873,272.693 91.342,272.757 90.746 C 272.834 90.026,272.992 89.510,273.228 89.210 C 273.534 88.822,273.591 88.495,273.640 86.853 C 273.687 85.288,273.754 84.868,274.019 84.510 C 274.479 83.887,274.438 65.611,273.976 65.273 C 273.752 65.109,273.691 64.676,273.643 62.883 C 273.591 60.979,273.538 60.633,273.234 60.222 C 273.016 59.927,272.840 59.351,272.765 58.686 C 272.649 57.655,272.357 56.959,271.872 56.554 C 271.711 56.420,271.637 55.991,271.637 55.187 C 271.637 54.066,271.409 53.497,271.048 53.720 C 270.975 53.766,270.934 53.268,270.958 52.615 C 270.996 51.547,270.960 51.389,270.603 51.058 C 270.264 50.743,270.218 50.578,270.291 49.931 C 270.362 49.295,270.325 49.154,270.063 49.057 C 269.604 48.887,269.528 48.698,269.624 47.975 C 269.716 47.291,269.242 46.441,268.994 46.843 C 268.918 46.966,268.846 46.939,268.778 46.764 C 268.723 46.619,268.750 46.500,268.839 46.500 C 269.094 46.500,269.026 45.396,268.757 45.173 C 268.624 45.062,268.455 45.008,268.382 45.053 C 268.310 45.099,268.250 44.824,268.250 44.443 C 268.250 43.857,268.198 43.751,267.915 43.759 C 267.626 43.767,267.589 43.680,267.642 43.123 C 267.694 42.580,267.648 42.464,267.352 42.386 C 267.085 42.317,267.000 42.164,267.000 41.753 C 267.000 41.455,266.860 41.033,266.690 40.814 C 266.519 40.596,266.322 40.229,266.253 40.000 C 266.080 39.428,265.676 39.000,265.308 39.000 C 264.986 39.000,264.945 38.884,264.995 38.125 C 265.019 37.767,264.952 37.667,264.689 37.667 C 264.422 37.667,264.343 37.540,264.302 37.042 C 264.260 36.538,264.177 36.406,263.873 36.363 C 263.665 36.334,263.536 36.243,263.586 36.162 C 263.741 35.911,263.476 35.167,263.232 35.167 C 263.096 35.167,263.000 34.995,263.000 34.750 C 263.000 34.521,262.860 34.194,262.689 34.023 C 262.519 33.852,262.328 33.440,262.265 33.106 C 262.196 32.739,262.056 32.500,261.909 32.500 C 261.774 32.500,261.667 32.345,261.667 32.151 C 261.667 31.942,261.533 31.767,261.333 31.715 C 261.150 31.667,261.000 31.516,261.000 31.380 C 261.000 31.243,260.831 30.923,260.625 30.668 C 260.419 30.413,260.031 29.934,259.763 29.602 C 259.495 29.271,259.143 29.000,258.980 29.000 C 258.818 29.000,258.578 28.847,258.447 28.660 C 258.316 28.472,258.108 28.341,257.984 28.368 C 257.830 28.402,257.729 28.164,257.662 27.604 C 257.604 27.126,257.448 26.707,257.282 26.586 C 257.127 26.473,257.000 26.299,257.000 26.199 C 257.000 26.100,256.864 25.921,256.697 25.801 C 256.531 25.681,256.346 25.452,256.286 25.292 C 256.226 25.131,256.071 25.000,255.941 25.000 C 255.812 25.000,255.664 24.840,255.613 24.645 C 255.547 24.392,255.426 24.314,255.198 24.374 C 254.954 24.437,254.894 24.387,254.952 24.167 C 255.037 23.839,254.288 23.000,253.909 23.000 C 253.776 23.000,253.667 22.857,253.667 22.682 C 253.667 22.226,252.084 20.939,251.660 21.050 C 251.201 21.170,250.858 20.778,250.959 20.249 C 251.024 19.911,250.966 19.793,250.703 19.725 C 250.517 19.676,250.327 19.493,250.281 19.318 C 250.235 19.143,250.067 19.000,249.906 19.000 C 249.634 19.000,249.633 19.020,249.892 19.306 C 250.127 19.566,250.131 19.611,249.917 19.611 C 249.779 19.611,249.704 19.573,249.750 19.527 C 249.796 19.481,249.703 19.293,249.542 19.110 C 249.381 18.926,249.351 18.835,249.474 18.908 C 249.635 19.002,249.682 18.951,249.639 18.730 C 249.606 18.560,249.440 18.394,249.270 18.361 C 249.047 18.318,248.998 18.364,249.096 18.526 C 249.206 18.708,249.178 18.707,248.949 18.521 C 248.643 18.274,248.562 18.082,248.833 18.250 C 248.925 18.307,249.000 18.229,249.000 18.078 C 249.000 17.926,248.850 17.763,248.667 17.715 C 248.483 17.667,248.333 17.517,248.333 17.382 C 248.333 17.246,248.183 17.096,248.000 17.048 C 247.817 17.000,247.667 16.856,247.667 16.726 C 247.667 16.597,247.479 16.420,247.250 16.333 C 247.021 16.246,246.833 16.103,246.833 16.015 C 246.833 15.928,246.665 15.805,246.458 15.742 C 246.252 15.680,245.922 15.481,245.725 15.301 C 245.528 15.121,245.228 14.988,245.058 15.006 C 244.350 15.081,244.196 15.007,244.292 14.640 C 244.371 14.337,244.330 14.295,244.026 14.375 C 243.748 14.447,243.667 14.395,243.667 14.143 C 243.667 13.797,242.892 13.014,242.542 13.005 C 242.427 13.002,242.333 12.885,242.333 12.745 C 242.333 12.604,242.202 12.441,242.042 12.381 C 241.881 12.321,241.652 12.136,241.532 11.969 C 241.410 11.800,241.107 11.667,240.843 11.667 C 240.512 11.667,240.346 11.567,240.285 11.333 C 240.236 11.145,240.058 11.000,239.875 11.000 C 239.697 11.000,239.416 10.850,239.250 10.667 C 239.084 10.483,238.784 10.333,238.583 10.333 C 238.383 10.333,238.083 10.183,237.917 10.000 C 237.751 9.817,237.451 9.667,237.250 9.667 C 237.049 9.667,236.744 9.511,236.572 9.321 C 236.379 9.108,236.120 9.002,235.895 9.045 C 235.662 9.089,235.558 9.043,235.606 8.917 C 235.718 8.627,235.243 8.300,234.801 8.362 C 234.548 8.398,234.358 8.303,234.245 8.083 C 234.132 7.863,233.905 7.750,233.578 7.750 C 233.252 7.750,233.025 7.637,232.912 7.417 C 232.792 7.184,232.572 7.083,232.184 7.083 C 231.751 7.083,231.469 6.925,230.919 6.375 C 230.467 5.923,230.061 5.667,229.798 5.667 C 229.571 5.667,229.249 5.517,229.083 5.333 C 228.904 5.136,228.570 5.000,228.261 5.000 C 227.939 5.000,227.627 4.867,227.442 4.651 C 227.200 4.368,226.993 4.313,226.343 4.360 C 225.813 4.397,225.566 4.355,225.612 4.235 C 225.767 3.833,225.172 3.620,224.154 3.712 C 223.192 3.799,223.140 3.785,222.986 3.380 C 222.837 2.989,222.767 2.964,222.084 3.057 C 221.442 3.145,221.281 3.102,220.883 2.734 C 220.515 2.392,220.276 2.315,219.670 2.342 C 218.457 2.397,218.167 2.348,218.167 2.091 C 218.167 1.833,217.367 1.616,216.661 1.681 C 215.621 1.776,215.038 1.665,214.957 1.355 C 214.883 1.069,214.673 1.042,212.480 1.027 C 210.294 1.013,210.059 0.983,209.811 0.678 C 209.387 0.158,189.850 0.152,189.714 0.672 M185.240 1.411 C 185.062 1.546,184.842 1.656,184.750 1.656 C 184.658 1.656,184.729 1.546,184.907 1.411 C 185.085 1.277,185.305 1.167,185.397 1.167 C 185.489 1.167,185.418 1.277,185.240 1.411 M192.059 3.615 C 191.862 3.654,191.570 3.831,191.408 4.009 C 191.247 4.188,190.970 4.333,190.792 4.333 C 190.609 4.333,190.431 4.478,190.382 4.667 C 190.320 4.901,190.154 5.000,189.823 5.000 C 189.554 5.000,189.259 5.132,189.134 5.309 C 189.015 5.480,188.767 5.667,188.583 5.726 C 188.400 5.784,187.965 6.095,187.616 6.416 C 187.267 6.737,186.847 7.000,186.683 7.000 C 186.519 7.000,186.249 7.150,186.083 7.333 C 185.917 7.517,185.636 7.667,185.459 7.667 C 185.276 7.667,185.098 7.811,185.048 8.000 C 184.982 8.253,184.821 8.333,184.382 8.333 C 183.942 8.333,183.781 8.414,183.715 8.667 C 183.653 8.902,183.488 9.000,183.149 9.000 C 182.850 9.000,182.591 9.126,182.461 9.333 C 182.347 9.517,182.133 9.667,181.986 9.667 C 181.839 9.667,181.583 9.817,181.417 10.000 C 181.251 10.183,180.905 10.333,180.647 10.333 C 180.390 10.333,180.045 10.475,179.881 10.647 C 179.718 10.820,179.340 11.013,179.042 11.077 C 178.739 11.142,178.500 11.298,178.500 11.430 C 178.500 11.560,178.360 11.667,178.189 11.667 C 178.018 11.667,177.688 11.817,177.455 12.000 C 177.221 12.183,176.949 12.333,176.850 12.333 C 176.751 12.333,176.576 12.483,176.461 12.667 C 176.347 12.850,176.169 13.000,176.066 13.000 C 175.723 13.000,175.000 13.686,175.000 14.012 C 175.000 14.276,174.881 14.333,174.333 14.333 C 173.889 14.333,173.556 14.444,173.333 14.667 C 173.150 14.850,172.862 15.000,172.692 15.000 C 172.523 15.000,172.249 15.150,172.083 15.333 C 171.917 15.517,171.636 15.667,171.459 15.667 C 171.276 15.667,171.098 15.811,171.048 16.000 C 170.982 16.253,170.821 16.333,170.382 16.333 C 169.942 16.333,169.781 16.414,169.715 16.667 C 169.653 16.902,169.488 17.000,169.149 17.000 C 168.850 17.000,168.591 17.126,168.461 17.333 C 168.347 17.517,168.121 17.667,167.960 17.667 C 167.799 17.667,167.527 17.806,167.356 17.977 C 167.185 18.148,166.773 18.339,166.439 18.401 C 166.072 18.470,165.833 18.611,165.833 18.758 C 165.833 18.905,165.670 19.000,165.417 19.000 C 165.188 19.000,164.850 19.150,164.667 19.333 C 164.483 19.517,164.264 19.667,164.179 19.667 C 163.914 19.667,163.000 20.518,163.000 20.765 C 163.000 20.894,162.850 21.000,162.667 21.000 C 162.483 21.000,162.183 21.150,162.000 21.333 C 161.817 21.517,161.517 21.667,161.333 21.667 C 161.111 21.667,161.000 21.778,161.000 22.000 C 161.000 22.278,160.889 22.333,160.333 22.333 C 159.889 22.333,159.556 22.444,159.333 22.667 C 159.150 22.850,158.850 23.000,158.667 23.000 C 158.483 23.000,158.183 23.150,158.000 23.333 C 157.817 23.517,157.566 23.667,157.442 23.667 C 157.319 23.667,157.083 23.817,156.917 24.000 C 156.751 24.183,156.432 24.333,156.209 24.333 C 155.942 24.333,155.772 24.448,155.715 24.667 C 155.653 24.902,155.488 25.000,155.149 25.000 C 154.850 25.000,154.591 25.126,154.461 25.333 C 154.347 25.517,154.133 25.667,153.986 25.667 C 153.839 25.667,153.583 25.817,153.417 26.000 C 153.251 26.183,152.987 26.333,152.830 26.333 C 152.673 26.333,152.334 26.500,152.075 26.703 C 151.817 26.906,151.376 27.187,151.095 27.328 C 150.813 27.468,150.509 27.752,150.419 27.958 C 150.307 28.214,150.111 28.333,149.803 28.333 C 149.552 28.333,149.256 28.471,149.134 28.644 C 149.015 28.815,148.673 29.009,148.375 29.074 C 148.074 29.140,147.833 29.298,147.833 29.430 C 147.833 29.571,147.666 29.667,147.417 29.667 C 147.111 29.667,147.000 29.756,147.000 30.000 C 147.000 30.278,146.889 30.333,146.333 30.333 C 145.889 30.333,145.556 30.444,145.333 30.667 C 145.150 30.850,144.850 31.000,144.667 31.000 C 144.483 31.000,144.195 31.138,144.026 31.307 C 143.857 31.476,143.548 31.659,143.339 31.713 L 142.959 31.813 143.313 31.483 C 143.507 31.302,143.667 31.045,143.667 30.912 C 143.667 30.778,143.817 30.576,144.000 30.461 C 144.183 30.347,144.333 30.130,144.333 29.979 C 144.333 29.829,144.483 29.666,144.667 29.618 C 144.866 29.566,145.000 29.391,145.000 29.182 C 145.000 28.988,145.107 28.833,145.242 28.833 C 145.386 28.833,145.528 28.602,145.591 28.265 C 145.662 27.887,145.812 27.668,146.038 27.609 C 146.279 27.545,146.352 27.424,146.291 27.189 C 146.229 26.954,146.272 26.884,146.437 26.948 C 146.699 27.048,148.100 25.920,149.523 24.463 C 150.040 23.933,150.538 23.500,150.629 23.500 C 150.720 23.500,150.834 23.350,150.882 23.167 C 150.930 22.983,151.088 22.833,151.234 22.833 C 151.380 22.833,151.500 22.748,151.500 22.644 C 151.500 22.540,151.688 22.281,151.917 22.069 C 152.146 21.856,152.333 21.529,152.333 21.341 C 152.333 21.111,152.442 21.000,152.667 21.000 C 152.910 21.000,153.000 20.889,153.000 20.589 C 153.000 20.284,153.068 20.203,153.261 20.277 C 153.420 20.338,153.618 20.239,153.770 20.022 C 153.913 19.818,154.199 19.667,154.442 19.667 C 154.724 19.667,154.893 19.556,154.952 19.333 C 155.000 19.149,155.179 19.000,155.353 19.000 C 155.525 19.000,155.817 18.850,156.000 18.667 C 156.183 18.483,156.404 18.333,156.491 18.333 C 156.577 18.333,156.746 18.197,156.866 18.031 C 156.985 17.864,157.223 17.676,157.394 17.612 C 157.591 17.538,157.675 17.385,157.625 17.192 C 157.562 16.951,157.624 16.903,157.923 16.960 C 158.159 17.005,158.432 16.901,158.650 16.683 C 158.843 16.491,159.120 16.333,159.266 16.333 C 159.412 16.333,159.570 16.183,159.618 16.000 C 159.666 15.817,159.816 15.667,159.952 15.667 C 160.087 15.667,160.236 15.522,160.282 15.345 C 160.339 15.127,160.569 14.989,160.998 14.917 C 161.683 14.801,162.428 14.154,162.290 13.794 C 162.227 13.629,162.347 13.588,162.757 13.636 C 163.181 13.685,163.360 13.619,163.528 13.350 C 163.648 13.158,163.874 13.000,164.028 13.000 C 164.192 13.000,164.333 12.845,164.363 12.633 C 164.406 12.338,164.529 12.264,164.992 12.258 C 165.421 12.252,165.590 12.166,165.658 11.917 C 165.728 11.664,165.892 11.583,166.333 11.583 C 166.806 11.583,166.927 11.514,166.968 11.220 C 167.013 10.909,167.099 10.870,167.570 10.947 C 168.184 11.046,168.900 10.749,168.783 10.443 C 168.731 10.306,168.897 10.263,169.321 10.304 C 169.738 10.343,170.007 10.276,170.158 10.094 C 170.477 9.709,170.265 9.595,169.800 9.899 C 169.425 10.145,169.402 10.139,169.376 9.790 C 169.360 9.574,169.399 9.503,169.470 9.618 C 169.541 9.734,169.683 9.759,169.812 9.680 C 169.932 9.605,170.343 9.580,170.724 9.623 C 171.280 9.685,171.481 9.631,171.735 9.350 C 171.909 9.158,172.209 8.999,172.401 8.998 C 173.013 8.994,173.500 8.802,173.500 8.564 C 173.500 8.412,173.697 8.333,174.078 8.333 C 174.525 8.333,174.844 8.166,175.489 7.593 C 176.234 6.932,176.387 6.863,176.921 6.950 C 177.434 7.033,177.532 6.996,177.612 6.690 C 177.708 6.322,178.021 6.246,179.125 6.322 C 179.574 6.353,179.667 6.300,179.667 6.013 C 179.667 5.648,180.001 5.577,181.339 5.654 C 181.736 5.677,182.083 5.566,182.404 5.313 C 182.817 4.989,183.059 4.942,184.207 4.967 C 185.402 4.992,185.541 4.962,185.619 4.664 C 185.713 4.305,186.351 4.216,188.158 4.311 C 189.341 4.373,190.167 4.212,190.167 3.919 C 190.167 3.773,190.400 3.662,190.792 3.621 C 191.658 3.531,192.512 3.527,192.059 3.615 M208.857 3.667 C 209.027 3.667,209.167 3.773,209.167 3.903 C 209.167 4.223,209.763 4.313,211.805 4.304 C 213.363 4.297,213.549 4.329,213.768 4.642 C 213.983 4.949,214.169 4.985,215.429 4.967 C 216.710 4.948,216.872 4.982,217.102 5.309 C 217.309 5.604,217.504 5.667,218.152 5.644 C 218.766 5.622,219.030 5.697,219.302 5.968 C 219.581 6.247,219.850 6.319,220.591 6.310 C 221.365 6.300,221.571 6.360,221.776 6.654 C 221.958 6.913,222.175 6.999,222.583 6.971 C 223.034 6.941,223.286 7.068,223.900 7.633 C 224.492 8.179,224.788 8.333,225.246 8.333 C 225.635 8.333,225.833 8.411,225.833 8.564 C 225.833 8.802,226.320 8.994,226.933 8.998 C 227.125 8.999,227.417 9.150,227.583 9.333 C 227.770 9.540,228.097 9.667,228.442 9.667 C 228.788 9.667,229.134 9.801,229.353 10.019 C 229.630 10.296,229.842 10.354,230.343 10.286 C 230.901 10.212,230.988 10.246,231.032 10.559 C 231.075 10.855,231.189 10.914,231.700 10.898 C 232.207 10.883,232.325 10.942,232.366 11.232 C 232.407 11.513,232.534 11.583,233.000 11.583 C 233.442 11.583,233.605 11.664,233.673 11.917 C 233.723 12.100,233.922 12.273,234.114 12.301 C 234.307 12.329,234.597 12.498,234.758 12.676 C 234.920 12.854,235.173 13.000,235.322 13.000 C 235.471 13.000,235.726 13.155,235.888 13.345 C 236.069 13.557,236.357 13.679,236.633 13.661 C 237.637 13.595,237.790 13.649,237.723 14.042 C 237.636 14.549,238.836 15.667,239.467 15.667 C 239.577 15.667,239.667 15.782,239.667 15.922 C 239.667 16.062,239.798 16.224,239.958 16.282 C 240.119 16.340,240.384 16.525,240.548 16.693 C 240.712 16.862,241.031 17.000,241.256 17.000 C 241.514 17.000,241.667 17.095,241.667 17.255 C 241.667 17.396,241.798 17.559,241.958 17.619 C 242.119 17.679,242.348 17.864,242.468 18.031 C 242.588 18.197,242.756 18.333,242.843 18.333 C 242.929 18.333,243.150 18.483,243.333 18.667 C 243.517 18.850,243.808 19.000,243.981 19.000 C 244.154 19.000,244.333 19.149,244.382 19.333 C 244.430 19.517,244.599 19.667,244.758 19.667 C 244.917 19.667,245.137 19.791,245.248 19.943 C 245.359 20.094,245.630 20.238,245.850 20.262 C 246.070 20.286,246.304 20.312,246.370 20.319 C 246.436 20.327,246.450 20.438,246.401 20.565 C 246.352 20.692,246.504 20.989,246.739 21.224 C 246.974 21.459,247.167 21.767,247.167 21.909 C 247.167 22.051,247.279 22.167,247.417 22.167 C 247.554 22.167,247.667 22.234,247.667 22.315 C 247.667 22.483,249.250 24.077,249.921 24.583 C 250.164 24.767,250.547 25.085,250.772 25.292 C 251.213 25.695,251.775 25.814,251.561 25.458 C 251.476 25.317,251.526 25.323,251.718 25.479 C 252.032 25.734,252.101 25.916,251.817 25.740 C 251.704 25.670,251.657 25.745,251.694 25.937 C 251.727 26.107,251.893 26.273,252.063 26.306 C 252.277 26.347,252.333 26.301,252.244 26.157 C 252.167 26.032,252.183 25.991,252.285 26.054 C 252.379 26.111,252.419 26.348,252.375 26.579 C 252.309 26.922,252.360 27.000,252.647 27.000 C 252.889 27.000,253.000 27.105,253.000 27.333 C 253.000 27.573,253.111 27.667,253.394 27.667 C 253.720 27.667,253.774 27.735,253.710 28.070 C 253.658 28.343,253.747 28.572,253.983 28.774 C 254.176 28.939,254.333 29.178,254.333 29.305 C 254.333 29.507,254.660 29.984,255.380 30.833 C 256.010 31.575,256.053 31.667,255.770 31.667 C 255.622 31.667,255.500 31.560,255.500 31.430 C 255.500 31.298,255.259 31.140,254.958 31.074 C 254.660 31.009,254.319 30.815,254.199 30.644 C 254.078 30.471,253.781 30.333,253.531 30.333 C 253.261 30.333,252.997 30.200,252.872 30.000 C 252.739 29.787,252.483 29.667,252.165 29.667 C 251.889 29.667,251.518 29.518,251.333 29.333 C 251.150 29.150,250.859 29.000,250.686 29.000 C 250.512 29.000,250.333 28.851,250.285 28.667 C 250.218 28.411,250.058 28.333,249.599 28.333 C 249.248 28.333,249.000 28.251,249.000 28.136 C 249.000 27.826,248.307 27.167,247.982 27.167 C 247.821 27.167,247.643 27.021,247.586 26.842 C 247.529 26.663,247.318 26.465,247.116 26.402 C 246.915 26.339,246.571 26.148,246.353 25.977 C 246.134 25.806,245.846 25.667,245.712 25.667 C 245.579 25.667,245.279 25.517,245.045 25.333 C 244.812 25.150,244.416 25.000,244.164 25.000 C 243.846 25.000,243.679 24.898,243.618 24.667 C 243.552 24.414,243.391 24.333,242.952 24.333 C 242.512 24.333,242.351 24.253,242.285 24.000 C 242.233 23.801,242.058 23.667,241.849 23.667 C 241.657 23.667,241.500 23.560,241.500 23.430 C 241.500 23.298,241.259 23.140,240.958 23.074 C 240.660 23.009,240.319 22.815,240.199 22.644 C 240.078 22.471,239.781 22.333,239.531 22.333 C 239.261 22.333,238.997 22.200,238.872 22.000 C 238.739 21.787,238.483 21.667,238.165 21.667 C 237.889 21.667,237.518 21.518,237.333 21.333 C 237.150 21.150,236.850 21.000,236.667 21.000 C 236.483 21.000,236.333 20.894,236.333 20.765 C 236.333 20.478,235.400 19.667,235.071 19.667 C 234.940 19.667,234.833 19.560,234.833 19.430 C 234.833 19.298,234.593 19.140,234.292 19.074 C 233.994 19.009,233.652 18.815,233.532 18.644 C 233.412 18.473,233.180 18.333,233.016 18.333 C 232.852 18.333,232.583 18.183,232.417 18.000 C 232.251 17.817,231.951 17.667,231.750 17.667 C 231.549 17.667,231.249 17.517,231.083 17.333 C 230.900 17.131,230.570 17.000,230.244 17.000 C 229.846 17.000,229.683 16.913,229.618 16.667 C 229.552 16.411,229.391 16.333,228.932 16.333 C 228.444 16.333,228.333 16.271,228.333 16.000 C 228.333 15.756,228.222 15.667,227.917 15.667 C 227.668 15.667,227.500 15.571,227.500 15.430 C 227.500 15.298,227.259 15.140,226.958 15.074 C 226.660 15.009,226.319 14.815,226.199 14.644 C 226.078 14.471,225.781 14.333,225.531 14.333 C 225.261 14.333,224.997 14.200,224.872 14.000 C 224.758 13.817,224.560 13.667,224.433 13.667 C 224.306 13.667,224.162 13.561,224.112 13.432 C 224.063 13.304,223.800 13.149,223.528 13.090 C 223.237 13.026,222.999 12.848,222.949 12.657 C 222.902 12.477,222.721 12.333,222.541 12.333 C 222.364 12.333,222.083 12.183,221.917 12.000 C 221.751 11.817,221.493 11.667,221.345 11.667 C 221.196 11.667,220.946 11.517,220.789 11.333 C 220.632 11.150,220.324 11.000,220.104 11.000 C 219.846 11.000,219.675 10.883,219.618 10.667 C 219.561 10.448,219.391 10.333,219.125 10.333 C 218.901 10.333,218.583 10.183,218.417 10.000 C 218.251 9.817,217.951 9.667,217.750 9.667 C 217.549 9.667,217.249 9.517,217.083 9.333 C 216.900 9.131,216.570 9.000,216.244 9.000 C 215.846 9.000,215.683 8.913,215.618 8.667 C 215.552 8.411,215.391 8.333,214.932 8.333 C 214.444 8.333,214.333 8.271,214.333 8.000 C 214.333 7.778,214.222 7.667,214.000 7.667 C 213.817 7.667,213.517 7.517,213.333 7.333 C 213.150 7.150,212.869 6.997,212.708 6.994 C 212.548 6.990,212.267 6.752,212.083 6.464 C 211.900 6.176,211.525 5.869,211.250 5.782 C 210.975 5.695,210.595 5.484,210.406 5.312 C 210.217 5.140,209.832 5.000,209.550 5.000 C 209.179 5.000,209.015 4.909,208.952 4.667 C 208.901 4.474,208.724 4.333,208.533 4.333 C 208.351 4.333,208.160 4.224,208.109 4.090 C 208.058 3.956,207.768 3.769,207.466 3.674 C 206.961 3.515,206.983 3.508,207.732 3.584 C 208.180 3.629,208.686 3.667,208.857 3.667 M214.667 4.659 C 214.804 4.752,214.831 4.829,214.727 4.831 C 214.622 4.832,214.360 4.679,214.143 4.491 C 213.744 4.143,214.053 4.242,214.667 4.659 M217.867 5.077 C 217.910 5.035,217.944 5.108,217.944 5.241 C 217.944 5.506,217.451 5.325,217.239 4.982 C 217.158 4.851,217.220 4.850,217.458 4.978 C 217.640 5.075,217.824 5.120,217.867 5.077 M171.240 5.411 C 171.062 5.546,170.842 5.656,170.750 5.656 C 170.658 5.656,170.729 5.546,170.907 5.411 C 171.085 5.277,171.305 5.167,171.397 5.167 C 171.489 5.167,171.418 5.277,171.240 5.411 M169.907 6.078 C 169.729 6.213,169.508 6.323,169.417 6.323 C 169.325 6.323,169.396 6.213,169.574 6.078 C 169.751 5.943,169.972 5.833,170.064 5.833 C 170.155 5.833,170.085 5.943,169.907 6.078 M229.760 6.078 C 229.938 6.213,230.008 6.323,229.917 6.323 C 229.825 6.323,229.604 6.213,229.426 6.078 C 229.249 5.943,229.178 5.833,229.270 5.833 C 229.361 5.833,229.582 5.943,229.760 6.078 M177.312 6.609 C 177.211 6.730,177.061 6.788,176.978 6.737 C 176.769 6.607,176.933 6.389,177.240 6.389 C 177.432 6.389,177.450 6.443,177.312 6.609 M174.399 7.528 C 174.316 7.662,174.373 7.687,174.580 7.608 C 174.834 7.510,174.848 7.532,174.670 7.746 C 174.554 7.886,174.273 8.000,174.044 8.000 L 173.630 8.000 174.023 7.672 C 174.481 7.291,174.566 7.258,174.399 7.528 M165.667 8.250 C 165.549 8.392,165.415 8.471,165.369 8.425 C 165.323 8.379,165.382 8.225,165.500 8.083 C 165.618 7.941,165.752 7.863,165.798 7.909 C 165.843 7.954,165.784 8.108,165.667 8.250 M228.611 9.274 C 228.611 9.424,228.526 9.436,228.306 9.318 C 228.137 9.229,228.000 9.125,228.000 9.088 C 228.000 9.051,228.137 9.031,228.306 9.044 C 228.474 9.056,228.611 9.160,228.611 9.274 M165.312 11.943 C 165.211 12.064,165.061 12.121,164.978 12.070 C 164.769 11.940,164.933 11.722,165.240 11.722 C 165.432 11.722,165.450 11.776,165.312 11.943 M242.667 13.694 C 242.667 13.765,242.551 13.778,242.409 13.724 C 242.268 13.670,242.192 13.585,242.241 13.536 C 242.368 13.409,241.988 12.987,241.833 13.083 C 241.763 13.127,241.663 13.003,241.612 12.808 C 241.534 12.512,241.614 12.545,242.093 13.009 C 242.408 13.315,242.667 13.623,242.667 13.694 M152.389 16.806 C 152.345 16.974,152.202 17.111,152.070 17.111 C 151.877 17.111,151.885 17.053,152.108 16.806 C 152.261 16.637,152.404 16.500,152.427 16.500 C 152.450 16.500,152.433 16.637,152.389 16.806 M156.582 17.834 C 156.416 18.018,156.236 18.125,156.182 18.071 C 156.128 18.017,156.229 17.866,156.407 17.736 C 156.864 17.402,156.936 17.443,156.582 17.834 M243.167 18.006 C 243.167 18.243,243.087 18.206,242.734 17.809 C 242.418 17.453,242.419 17.453,242.792 17.648 C 242.998 17.757,243.167 17.917,243.167 18.006 M256.583 26.167 C 256.749 26.350,256.801 26.500,256.698 26.500 C 256.596 26.500,256.431 26.350,256.333 26.167 C 256.235 25.983,256.183 25.833,256.218 25.833 C 256.253 25.833,256.417 25.983,256.583 26.167 M254.907 28.922 C 255.104 29.071,255.145 29.167,255.011 29.167 C 254.833 29.167,254.835 29.221,255.018 29.458 C 255.206 29.701,255.182 29.697,254.876 29.436 C 254.674 29.263,254.544 29.064,254.588 28.992 C 254.633 28.920,254.575 28.824,254.459 28.777 C 254.344 28.731,254.325 28.689,254.417 28.685 C 254.508 28.681,254.729 28.787,254.907 28.922 M257.388 32.333 C 257.584 32.563,257.351 32.378,256.872 31.923 C 256.392 31.468,256.000 31.029,256.000 30.947 C 256.000 30.807,256.581 31.387,257.388 32.333 M142.583 31.833 C 142.417 32.017,142.207 32.167,142.115 32.167 C 142.024 32.167,142.122 32.017,142.333 31.833 C 142.545 31.650,142.755 31.500,142.801 31.500 C 142.847 31.500,142.749 31.650,142.583 31.833 M138.097 32.319 C 137.938 32.494,137.789 32.769,137.765 32.930 C 137.730 33.167,137.167 33.460,137.167 33.241 C 137.167 33.134,138.196 32.000,138.293 32.000 C 138.344 32.000,138.255 32.143,138.097 32.319 M136.248 35.458 C 136.217 35.619,136.186 35.773,136.179 35.802 C 136.172 35.830,136.088 35.804,135.992 35.745 C 135.872 35.671,135.879 35.563,136.012 35.402 C 136.268 35.094,136.316 35.105,136.248 35.458 M266.167 40.724 C 266.167 40.813,266.018 40.751,265.837 40.587 C 265.656 40.423,265.555 40.212,265.613 40.119 C 265.722 39.943,266.167 40.429,266.167 40.724 M268.833 46.022 C 268.833 46.091,268.759 46.193,268.669 46.249 C 268.574 46.307,268.546 46.240,268.604 46.090 C 268.679 45.894,268.627 45.855,268.394 45.930 C 268.137 46.014,268.126 46.000,268.333 45.852 C 268.517 45.719,268.526 45.671,268.365 45.669 C 268.243 45.668,268.199 45.582,268.266 45.475 C 268.381 45.288,268.833 45.723,268.833 46.022 M264.828 46.167 C 264.923 46.167,265.000 46.275,265.000 46.407 C 265.000 46.540,265.165 46.764,265.368 46.905 C 265.645 47.100,265.725 47.306,265.696 47.748 C 265.663 48.238,265.711 48.333,265.995 48.333 C 266.322 48.333,266.444 48.743,266.340 49.485 C 266.267 50.002,266.525 50.833,266.758 50.833 C 267.028 50.833,267.063 50.975,267.010 51.865 C 266.982 52.341,267.068 52.561,267.393 52.844 C 267.768 53.170,267.802 53.297,267.715 54.030 C 267.629 54.762,267.656 54.862,267.960 54.941 C 268.394 55.055,268.498 55.457,268.382 56.579 C 268.300 57.373,268.335 57.517,268.705 57.886 C 269.138 58.320,269.411 59.000,269.151 59.000 C 268.841 59.000,268.982 60.766,269.316 61.068 C 269.534 61.265,269.653 61.292,269.698 61.157 C 269.734 61.048,269.733 61.950,269.695 63.161 C 269.632 65.182,269.655 65.402,269.969 65.826 C 270.284 66.254,270.318 66.596,270.401 70.270 C 270.451 72.459,270.498 74.475,270.507 74.750 C 270.606 77.941,270.265 84.277,269.980 84.548 C 269.648 84.864,269.495 87.667,269.810 87.667 C 269.889 87.667,269.918 87.853,269.874 88.081 C 269.831 88.309,269.735 88.459,269.661 88.413 C 269.239 88.152,268.958 88.918,269.047 90.089 C 269.143 91.360,269.094 91.542,268.602 91.724 C 268.328 91.826,268.299 91.966,268.377 92.824 C 268.458 93.717,268.428 93.843,268.050 94.195 C 267.693 94.528,267.645 94.691,267.713 95.333 C 267.806 96.204,267.729 96.500,267.410 96.500 C 267.194 96.500,266.970 97.280,267.027 97.833 C 267.108 98.621,266.989 99.000,266.661 99.000 C 266.378 99.000,266.329 99.095,266.362 99.585 C 266.392 100.032,266.312 100.233,266.023 100.436 C 265.751 100.627,265.652 100.849,265.672 101.226 C 265.720 102.114,265.675 102.333,265.446 102.333 C 265.158 102.333,264.556 102.990,264.453 103.417 C 264.408 103.600,264.368 90.625,264.363 74.583 C 264.358 57.039,264.415 45.566,264.505 45.792 C 264.588 45.998,264.733 46.167,264.828 46.167 M135.000 74.333 L 135.000 103.000 134.667 102.667 C 134.483 102.483,134.333 102.118,134.333 101.856 C 134.333 101.593,134.195 101.199,134.025 100.981 C 133.856 100.762,133.663 100.358,133.596 100.083 C 133.443 99.456,133.041 99.000,132.641 99.000 C 132.325 99.000,132.265 98.724,132.328 97.553 C 132.347 97.197,132.233 96.899,131.977 96.644 C 131.664 96.331,131.604 96.109,131.635 95.368 C 131.668 94.591,131.628 94.459,131.337 94.382 C 130.983 94.290,130.924 94.009,130.991 92.727 C 131.020 92.176,130.951 91.985,130.649 91.773 C 130.305 91.532,130.273 91.388,130.299 90.174 C 130.324 89.000,130.284 88.801,129.966 88.504 C 129.645 88.205,129.608 88.012,129.636 86.792 C 129.675 85.160,129.559 84.500,129.237 84.500 C 128.963 84.500,128.981 84.832,128.944 79.222 C 128.917 75.120,128.908 75.019,128.542 74.628 C 127.938 73.985,127.974 70.541,128.591 69.924 L 129.015 69.500 128.966 66.513 C 128.917 63.575,128.923 63.520,129.309 63.110 C 129.643 62.754,129.694 62.549,129.653 61.721 C 129.573 60.077,129.633 59.714,129.999 59.619 C 130.297 59.541,130.328 59.401,130.307 58.262 C 130.286 57.181,130.335 56.937,130.633 56.619 C 130.904 56.331,130.978 56.050,130.963 55.371 C 130.947 54.657,131.014 54.429,131.324 54.140 C 131.631 53.853,131.688 53.664,131.619 53.149 C 131.550 52.634,131.611 52.429,131.939 52.075 C 132.239 51.751,132.336 51.476,132.309 51.019 C 132.279 50.515,132.401 50.238,132.969 49.519 C 133.394 48.982,133.667 48.462,133.667 48.192 C 133.667 47.927,133.802 47.662,134.000 47.539 C 134.230 47.395,134.333 47.150,134.333 46.749 C 134.333 46.342,134.409 46.167,134.583 46.167 C 134.721 46.167,134.833 46.054,134.833 45.917 C 134.833 45.779,134.871 45.667,134.917 45.667 C 134.962 45.667,135.000 58.567,135.000 74.333 M133.516 47.560 C 133.232 47.845,133.000 47.985,133.000 47.872 C 133.000 47.759,133.076 47.667,133.169 47.667 C 133.263 47.667,133.469 47.393,133.628 47.060 C 133.838 46.618,133.933 46.533,133.975 46.748 C 134.007 46.914,133.806 47.271,133.516 47.560 M129.167 50.724 C 129.167 50.756,129.006 50.925,128.809 51.099 C 128.453 51.415,128.453 51.415,128.648 51.042 C 128.811 50.732,129.167 50.514,129.167 50.724 M205.449 59.236 L 205.917 59.638 205.962 73.389 L 206.007 87.139 205.610 87.601 C 205.106 88.188,201.764 88.421,200.634 87.948 C 199.780 87.592,199.814 88.256,199.868 73.111 L 199.917 59.638 200.384 59.236 C 201.099 58.621,204.735 58.621,205.449 59.236 M229.666 59.165 C 229.982 59.755,229.511 60.284,222.920 66.746 C 219.378 70.218,216.409 73.192,216.322 73.355 C 216.189 73.603,216.702 74.182,219.456 76.888 C 227.250 84.546,229.342 86.575,229.580 86.708 C 229.933 86.906,229.906 87.765,229.542 87.928 C 229.156 88.101,223.822 88.232,223.033 88.088 C 222.501 87.991,221.639 87.200,216.720 82.295 L 211.024 76.613 209.458 76.495 C 206.959 76.306,206.941 76.281,207.027 73.187 C 207.099 70.606,207.088 70.618,209.335 70.528 L 211.003 70.461 216.508 64.950 C 219.535 61.918,222.216 59.308,222.464 59.148 C 223.201 58.675,229.412 58.690,229.666 59.165 M269.656 60.583 C 269.656 60.675,269.546 60.604,269.411 60.426 C 269.277 60.249,269.167 60.028,269.167 59.936 C 269.167 59.845,269.277 59.915,269.411 60.093 C 269.546 60.271,269.656 60.492,269.656 60.583 M273.314 62.218 C 273.303 62.602,273.258 62.767,273.213 62.583 C 273.168 62.400,273.063 62.166,272.979 62.063 C 272.797 61.838,272.972 61.296,273.184 61.427 C 273.266 61.478,273.325 61.834,273.314 62.218 M273.448 64.625 C 273.406 64.785,273.372 64.654,273.372 64.333 C 273.372 64.012,273.406 63.881,273.448 64.042 C 273.490 64.202,273.490 64.465,273.448 64.625 M191.533 66.644 C 192.900 67.330,194.833 69.401,194.833 70.180 C 194.833 70.315,194.965 70.611,195.125 70.838 C 195.386 71.207,195.422 71.834,195.466 76.843 C 195.514 82.225,195.481 82.726,195.018 83.500 C 194.936 83.637,194.782 83.938,194.676 84.167 C 193.958 85.720,192.844 86.749,191.040 87.525 L 189.750 88.080 184.393 88.082 C 177.753 88.084,178.332 88.361,178.336 85.183 C 178.339 82.124,177.779 82.432,183.535 82.333 C 190.209 82.219,189.834 82.539,189.832 76.980 C 189.831 71.510,190.249 71.847,183.450 71.839 C 178.058 71.833,177.761 71.877,177.366 72.745 C 177.218 73.069,177.167 75.841,177.167 83.435 C 177.167 95.908,177.505 94.660,174.125 94.664 C 170.771 94.668,171.146 96.203,171.203 82.699 L 171.250 71.409 171.791 70.311 C 172.617 68.634,174.205 67.142,175.935 66.419 L 176.917 66.008 183.667 66.046 L 190.417 66.083 191.533 66.644 M273.977 66.718 C 273.960 67.114,273.936 67.154,273.882 66.873 C 273.842 66.665,273.740 66.538,273.655 66.591 C 273.474 66.702,273.462 66.627,273.601 66.265 C 273.761 65.846,274.002 66.136,273.977 66.718 M274.118 68.706 C 274.078 68.914,274.044 68.783,274.042 68.417 C 274.040 68.050,274.073 67.880,274.115 68.040 C 274.156 68.199,274.158 68.499,274.118 68.706 M128.599 69.104 C 128.546 69.242,128.434 69.312,128.350 69.260 C 128.262 69.206,128.279 68.993,128.391 68.752 C 128.598 68.307,128.784 68.621,128.599 69.104 M270.615 69.958 C 270.573 70.119,270.539 69.987,270.539 69.667 C 270.539 69.346,270.573 69.215,270.615 69.375 C 270.657 69.535,270.657 69.798,270.615 69.958 M125.624 70.873 C 125.646 71.166,125.618 71.193,125.495 70.998 C 125.372 70.803,125.334 70.838,125.317 71.167 C 125.301 71.465,125.273 71.498,125.217 71.284 C 125.174 71.119,125.230 70.875,125.340 70.742 C 125.596 70.434,125.591 70.432,125.624 70.873 M271.006 72.167 C 271.089 72.167,271.113 72.279,271.061 72.416 C 270.895 72.848,270.666 72.506,270.692 71.865 C 270.712 71.362,270.729 71.333,270.786 71.708 C 270.824 71.960,270.923 72.167,271.006 72.167 M128.650 78.052 C 128.634 78.559,128.627 78.565,128.500 78.167 C 128.308 77.568,128.308 77.298,128.500 77.417 C 128.592 77.473,128.659 77.759,128.650 78.052 M271.008 79.162 C 270.930 79.211,270.832 79.438,270.789 79.667 C 270.730 79.989,270.707 79.948,270.689 79.486 C 270.665 78.833,270.821 78.543,271.021 78.868 C 271.092 78.982,271.086 79.114,271.008 79.162 M270.618 81.542 C 270.578 81.748,270.545 81.579,270.545 81.167 C 270.545 80.754,270.578 80.585,270.618 80.792 C 270.657 80.998,270.657 81.335,270.618 81.542 M274.115 82.625 C 274.073 82.785,274.039 82.654,274.039 82.333 C 274.039 82.012,274.073 81.881,274.115 82.042 C 274.157 82.202,274.157 82.465,274.115 82.625 M273.870 83.864 C 273.769 83.964,273.674 83.927,273.611 83.761 C 273.556 83.618,273.583 83.500,273.672 83.500 C 273.761 83.500,273.844 83.369,273.856 83.208 C 273.870 83.030,273.908 83.070,273.953 83.311 C 273.995 83.528,273.957 83.777,273.870 83.864 M273.264 87.773 C 273.212 87.909,273.087 87.970,272.987 87.908 C 272.855 87.827,272.855 87.745,272.985 87.615 C 273.085 87.515,273.177 87.280,273.189 87.092 C 273.209 86.795,273.222 86.801,273.286 87.137 C 273.326 87.350,273.317 87.636,273.264 87.773 M130.657 92.315 C 130.775 92.535,130.754 92.611,130.574 92.611 C 130.442 92.611,130.368 92.576,130.411 92.534 C 130.453 92.491,130.408 92.307,130.311 92.125 C 130.183 91.886,130.185 91.825,130.316 91.906 C 130.416 91.968,130.570 92.152,130.657 92.315 M129.575 99.514 C 129.533 99.582,129.588 99.668,129.699 99.705 C 129.849 99.755,129.851 99.803,129.708 99.891 C 129.601 99.957,129.444 99.873,129.351 99.699 C 129.225 99.465,129.242 99.389,129.418 99.389 C 129.547 99.389,129.617 99.445,129.575 99.514 M269.985 99.694 C 269.895 99.862,269.740 100.000,269.640 100.000 C 269.512 100.000,269.513 99.935,269.645 99.776 C 269.747 99.653,269.794 99.516,269.749 99.471 C 269.704 99.426,269.775 99.389,269.908 99.389 C 270.090 99.389,270.109 99.464,269.985 99.694 M132.389 106.000 C 132.291 106.097,131.833 105.506,131.833 105.283 C 131.833 105.199,131.977 105.307,132.152 105.523 C 132.328 105.740,132.434 105.954,132.389 106.000 M133.000 107.207 C 133.000 107.300,132.889 107.282,132.750 107.167 C 132.612 107.053,132.500 106.884,132.500 106.793 C 132.500 106.700,132.611 106.718,132.750 106.833 C 132.887 106.947,133.000 107.116,133.000 107.207 M266.833 107.252 C 266.833 107.391,266.590 107.751,266.292 108.053 C 265.994 108.354,265.894 108.428,266.070 108.218 C 266.246 108.007,266.346 107.791,266.292 107.737 C 266.238 107.683,266.319 107.501,266.472 107.333 C 266.822 106.949,266.833 106.946,266.833 107.252 M261.843 115.880 C 261.629 116.083,261.514 116.138,261.586 116.000 C 261.819 115.561,262.045 115.323,262.139 115.417 C 262.190 115.468,262.057 115.676,261.843 115.880 M137.872 116.001 C 138.290 116.390,138.467 116.985,138.066 116.652 C 137.934 116.542,137.861 116.416,137.906 116.372 C 137.950 116.328,137.820 116.154,137.618 115.985 C 137.416 115.816,137.309 115.675,137.382 115.672 C 137.455 115.669,137.675 115.817,137.872 116.001 M257.678 116.145 C 257.587 116.316,257.547 116.491,257.589 116.534 C 257.632 116.576,257.557 116.611,257.424 116.611 C 257.187 116.611,257.219 116.465,257.546 116.042 C 257.788 115.729,257.868 115.791,257.678 116.145 M143.833 117.248 C 143.833 117.409,144.069 117.534,144.500 117.603 C 144.867 117.661,145.167 117.803,145.167 117.919 C 145.167 118.159,145.685 118.328,146.438 118.331 C 146.880 118.333,146.973 118.407,147.057 118.826 C 147.120 119.141,147.327 119.408,147.632 119.565 C 147.893 119.701,148.205 119.929,148.324 120.072 C 148.443 120.216,148.644 120.333,148.770 120.333 C 148.897 120.333,149.150 120.483,149.333 120.667 C 149.517 120.850,149.800 121.000,149.963 121.000 C 150.126 121.000,150.388 121.150,150.545 121.333 C 150.702 121.517,151.000 121.667,151.208 121.667 C 151.416 121.667,151.680 121.817,151.795 122.000 C 151.921 122.203,152.183 122.333,152.464 122.333 C 152.720 122.333,153.053 122.482,153.211 122.667 C 153.368 122.850,153.676 123.000,153.896 123.000 C 154.154 123.000,154.325 123.117,154.382 123.333 C 154.448 123.586,154.609 123.667,155.048 123.667 C 155.488 123.667,155.649 123.747,155.715 124.000 C 155.774 124.225,155.942 124.333,156.233 124.333 C 156.483 124.333,156.751 124.473,156.872 124.667 C 156.987 124.850,157.250 125.000,157.457 125.000 C 157.671 125.000,157.833 125.102,157.833 125.237 C 157.833 125.369,158.073 125.525,158.375 125.590 C 158.673 125.653,159.051 125.847,159.215 126.019 C 159.379 126.192,159.585 126.333,159.673 126.333 C 159.761 126.333,159.833 126.440,159.833 126.570 C 159.833 126.702,160.074 126.860,160.375 126.926 C 160.673 126.991,161.015 127.185,161.134 127.356 C 161.254 127.527,161.486 127.667,161.650 127.667 C 161.814 127.667,162.084 127.817,162.250 128.000 C 162.416 128.183,162.690 128.333,162.859 128.333 C 163.028 128.333,163.167 128.440,163.167 128.570 C 163.167 128.702,163.407 128.860,163.708 128.926 C 164.006 128.991,164.348 129.185,164.468 129.356 C 164.589 129.529,164.885 129.667,165.136 129.667 C 165.406 129.667,165.670 129.800,165.795 130.000 C 165.921 130.203,166.183 130.333,166.464 130.333 C 166.720 130.333,167.053 130.482,167.211 130.667 C 167.368 130.850,167.676 131.000,167.896 131.000 C 168.154 131.000,168.325 131.117,168.382 131.333 C 168.448 131.586,168.609 131.667,169.048 131.667 C 169.488 131.667,169.649 131.747,169.715 132.000 C 169.782 132.255,169.942 132.333,170.401 132.333 C 170.881 132.333,171.000 132.397,171.000 132.655 C 171.000 133.001,171.731 133.667,172.111 133.667 C 172.239 133.667,172.386 133.776,172.437 133.910 C 172.489 134.044,172.693 134.205,172.890 134.267 C 173.088 134.329,173.429 134.519,173.647 134.690 C 173.866 134.860,174.251 135.000,174.503 135.000 C 174.821 135.000,174.988 135.102,175.048 135.333 C 175.107 135.558,175.276 135.667,175.566 135.667 C 175.817 135.667,176.084 135.806,176.205 136.000 C 176.320 136.183,176.583 136.333,176.790 136.333 C 177.004 136.333,177.167 136.435,177.167 136.570 C 177.167 136.702,177.407 136.860,177.708 136.926 C 178.006 136.991,178.348 137.185,178.468 137.356 C 178.589 137.529,178.885 137.667,179.136 137.667 C 179.406 137.667,179.670 137.800,179.795 138.000 C 179.927 138.213,180.183 138.333,180.501 138.333 C 180.778 138.333,181.149 138.482,181.333 138.667 C 181.517 138.850,181.808 139.000,181.981 139.000 C 182.154 139.000,182.333 139.149,182.382 139.333 C 182.441 139.560,182.609 139.667,182.907 139.667 C 183.231 139.667,183.434 139.819,183.689 140.251 C 183.894 140.597,184.214 140.879,184.475 140.941 C 184.718 140.999,185.051 141.186,185.215 141.357 C 185.379 141.527,185.592 141.667,185.689 141.667 C 185.785 141.667,186.055 141.817,186.288 142.000 C 186.521 142.183,186.840 142.333,186.997 142.333 C 187.153 142.333,187.417 142.483,187.583 142.667 C 187.766 142.869,188.097 143.000,188.423 143.000 C 188.821 143.000,188.984 143.087,189.048 143.333 C 189.115 143.589,189.276 143.667,189.734 143.667 C 190.222 143.667,190.333 143.729,190.333 144.000 C 190.333 144.244,190.444 144.333,190.750 144.333 C 191.000 144.333,191.167 144.429,191.167 144.571 C 191.167 144.702,191.298 144.843,191.458 144.885 C 191.619 144.927,191.428 144.970,191.035 144.981 C 190.548 144.994,190.170 144.889,189.849 144.652 C 189.422 144.336,189.196 144.310,187.371 144.361 C 186.267 144.391,185.437 144.371,185.527 144.316 C 185.624 144.256,185.579 144.103,185.417 143.941 C 185.126 143.650,183.000 143.530,183.000 143.804 C 183.000 143.880,182.776 143.909,182.502 143.869 C 182.228 143.829,182.038 143.739,182.081 143.670 C 182.304 143.310,181.489 142.955,180.662 143.053 C 179.869 143.147,179.810 143.127,179.656 142.722 C 179.506 142.329,179.428 142.298,178.762 142.373 C 177.954 142.464,177.781 142.399,177.610 141.937 C 177.512 141.673,177.367 141.637,176.662 141.705 C 175.952 141.773,175.766 141.726,175.402 141.388 C 175.096 141.105,174.810 141.002,174.401 141.030 C 173.969 141.059,173.765 140.976,173.564 140.690 C 173.371 140.414,173.156 140.321,172.774 140.346 C 171.851 140.409,171.667 140.349,171.667 139.987 C 171.667 139.714,171.571 139.648,171.208 139.672 C 170.475 139.720,170.333 139.681,170.333 139.431 C 170.333 139.138,169.396 138.333,169.055 138.333 C 168.916 138.333,168.612 138.183,168.379 138.000 C 168.146 137.817,167.757 137.667,167.515 137.667 C 167.272 137.667,166.946 137.517,166.789 137.333 C 166.632 137.150,166.333 137.000,166.125 137.000 C 165.917 137.000,165.648 136.842,165.528 136.650 C 165.362 136.384,165.180 136.315,164.771 136.363 C 164.320 136.415,164.233 136.371,164.241 136.093 C 164.246 135.899,164.122 135.735,163.943 135.698 C 163.774 135.664,163.493 135.493,163.318 135.318 C 163.143 135.143,162.867 135.000,162.704 135.000 C 162.541 135.000,162.279 134.850,162.122 134.667 C 161.908 134.417,161.630 134.333,161.017 134.333 C 160.260 134.333,160.205 134.306,160.292 133.974 C 160.371 133.670,160.330 133.629,160.026 133.708 C 159.750 133.780,159.667 133.728,159.667 133.480 C 159.667 133.290,159.496 133.093,159.250 133.000 C 159.021 132.913,158.833 132.770,158.833 132.682 C 158.833 132.594,158.683 132.475,158.500 132.417 C 158.317 132.358,158.167 132.203,158.167 132.072 C 158.167 131.941,158.059 131.833,157.928 131.833 C 157.797 131.833,157.643 131.687,157.586 131.509 C 157.529 131.330,157.337 131.137,157.158 131.081 C 156.979 131.024,156.833 130.870,156.833 130.739 C 156.833 130.607,156.727 130.500,156.596 130.500 C 156.466 130.500,156.136 130.313,155.864 130.083 C 155.591 129.854,155.302 129.667,155.221 129.667 C 155.140 129.667,154.946 129.517,154.789 129.333 C 154.632 129.150,154.391 129.000,154.253 129.000 C 154.115 129.000,153.909 128.850,153.795 128.667 C 153.680 128.483,153.463 128.333,153.313 128.333 C 153.162 128.333,153.000 128.183,152.952 128.000 C 152.904 127.817,152.745 127.667,152.599 127.667 C 152.453 127.667,152.333 127.547,152.333 127.401 C 152.333 127.255,152.183 127.096,152.000 127.048 C 151.817 127.000,151.667 126.850,151.667 126.715 C 151.667 126.580,151.517 126.430,151.333 126.382 C 151.150 126.334,151.000 126.184,151.000 126.048 C 151.000 125.913,150.850 125.763,150.667 125.715 C 150.483 125.667,150.333 125.552,150.333 125.459 C 150.333 125.262,147.501 122.333,147.311 122.333 C 147.121 122.333,146.399 121.579,146.272 121.248 C 146.205 121.073,146.045 120.993,145.859 121.042 C 145.615 121.105,145.570 121.043,145.630 120.727 C 145.693 120.397,145.637 120.333,145.285 120.333 C 144.936 120.333,144.881 120.272,144.959 119.974 C 145.038 119.670,144.996 119.629,144.693 119.708 C 144.482 119.763,144.325 119.723,144.314 119.609 C 144.304 119.503,144.277 119.342,144.256 119.250 C 144.235 119.158,144.206 118.952,144.192 118.792 C 144.178 118.631,144.054 118.500,143.917 118.500 C 143.779 118.500,143.667 118.360,143.667 118.189 C 143.667 118.018,143.511 117.681,143.321 117.439 L 142.976 117.000 143.405 117.000 C 143.673 117.000,143.833 117.093,143.833 117.248 M256.077 117.292 C 255.390 118.074,255.000 118.656,255.000 118.899 C 255.000 119.046,254.896 119.167,254.768 119.167 C 254.518 119.167,254.260 119.914,254.421 120.174 C 254.475 120.262,254.328 120.333,254.093 120.333 C 253.778 120.333,253.667 120.420,253.667 120.667 C 253.667 120.895,253.556 121.000,253.314 121.000 C 253.033 121.000,252.976 121.080,253.036 121.394 C 253.098 121.715,253.053 121.772,252.796 121.705 C 252.575 121.647,252.453 121.729,252.387 121.978 C 252.336 122.173,252.184 122.333,252.048 122.333 C 251.913 122.333,251.763 122.483,251.715 122.667 C 251.667 122.850,251.545 123.000,251.443 123.000 C 251.196 123.000,249.000 125.188,249.000 125.434 C 249.000 125.541,248.850 125.667,248.667 125.715 C 248.483 125.763,248.333 125.922,248.333 126.068 C 248.333 126.214,248.214 126.333,248.068 126.333 C 247.922 126.333,247.763 126.483,247.715 126.667 C 247.667 126.850,247.517 127.000,247.382 127.000 C 247.246 127.000,247.096 127.150,247.048 127.333 C 247.000 127.518,246.821 127.667,246.647 127.667 C 246.444 127.667,246.333 127.785,246.333 128.000 C 246.333 128.207,246.222 128.333,246.040 128.333 C 245.879 128.333,245.653 128.483,245.539 128.667 C 245.424 128.850,245.182 129.000,245.000 129.000 C 244.818 129.000,244.576 129.150,244.461 129.333 C 244.347 129.517,244.188 129.667,244.109 129.667 C 244.030 129.667,243.742 129.854,243.470 130.083 C 243.197 130.313,242.868 130.500,242.737 130.500 C 242.607 130.500,242.500 130.607,242.500 130.739 C 242.500 130.870,242.354 131.024,242.175 131.081 C 241.997 131.137,241.804 131.330,241.747 131.509 C 241.691 131.687,241.512 131.833,241.351 131.833 C 240.964 131.833,240.267 132.587,240.380 132.882 C 240.445 133.051,240.363 133.094,240.082 133.041 C 239.777 132.982,239.682 133.048,239.639 133.350 C 239.593 133.665,239.479 133.736,239.000 133.742 C 238.534 133.748,238.406 133.822,238.366 134.107 C 238.331 134.353,238.225 134.440,238.025 134.388 C 237.837 134.339,237.655 134.461,237.509 134.734 C 237.385 134.966,237.215 135.113,237.131 135.061 C 236.851 134.888,235.833 135.173,235.833 135.424 C 235.833 135.567,235.673 135.667,235.442 135.667 C 235.228 135.667,234.920 135.812,234.758 135.991 C 234.597 136.169,234.304 136.338,234.108 136.366 C 233.874 136.399,233.753 136.532,233.759 136.751 C 233.767 137.040,233.680 137.078,233.123 137.024 C 232.580 136.973,232.464 137.018,232.386 137.315 C 232.315 137.588,232.164 137.667,231.715 137.667 C 231.276 137.667,231.114 137.747,231.048 138.000 C 230.987 138.233,230.821 138.333,230.493 138.333 C 229.981 138.333,229.000 139.055,229.000 139.431 C 229.000 139.672,228.823 139.730,228.274 139.672 C 227.729 139.615,227.192 139.825,227.094 140.134 C 227.020 140.367,226.868 140.418,226.406 140.364 C 225.911 140.306,225.797 140.353,225.720 140.647 C 225.628 141.000,225.455 141.059,224.659 141.009 C 224.411 140.993,224.052 141.151,223.796 141.389 C 223.427 141.731,223.239 141.782,222.608 141.711 C 221.966 141.638,221.798 141.687,221.436 142.049 C 221.157 142.327,220.897 142.442,220.675 142.384 C 220.070 142.226,219.167 142.485,219.167 142.816 C 219.167 143.076,219.056 143.107,218.364 143.041 C 217.564 142.964,216.862 143.309,217.085 143.669 C 217.134 143.748,216.512 143.769,215.704 143.717 C 214.278 143.625,213.223 143.957,213.806 144.316 C 213.896 144.371,213.008 144.392,211.831 144.362 C 209.848 144.311,209.667 144.333,209.346 144.654 C 208.849 145.151,207.697 145.163,208.122 144.667 C 208.279 144.483,208.523 144.333,208.664 144.333 C 208.805 144.333,209.013 144.183,209.128 144.000 C 209.261 143.787,209.517 143.667,209.835 143.667 C 210.111 143.667,210.482 143.518,210.667 143.333 C 210.850 143.150,211.150 143.000,211.333 143.000 C 211.517 143.000,211.817 142.850,212.000 142.667 C 212.183 142.483,212.434 142.333,212.558 142.333 C 212.681 142.333,212.917 142.183,213.083 142.000 C 213.249 141.817,213.519 141.667,213.683 141.667 C 213.847 141.667,214.079 141.529,214.199 141.360 C 214.319 141.192,214.615 141.005,214.858 140.945 C 215.117 140.881,215.442 140.594,215.644 140.251 C 215.884 139.843,216.109 139.667,216.385 139.667 C 216.603 139.667,216.917 139.517,217.083 139.333 C 217.249 139.150,217.549 139.000,217.750 139.000 C 217.951 139.000,218.251 138.850,218.417 138.667 C 218.583 138.483,218.901 138.333,219.125 138.333 C 219.391 138.333,219.561 138.218,219.618 138.000 C 219.684 137.747,219.846 137.667,220.285 137.667 C 220.724 137.667,220.886 137.586,220.952 137.333 C 221.008 137.117,221.179 137.000,221.438 137.000 C 221.657 137.000,221.965 136.850,222.122 136.667 C 222.279 136.483,222.523 136.333,222.664 136.333 C 222.805 136.333,223.013 136.183,223.128 136.000 C 223.261 135.787,223.517 135.667,223.835 135.667 C 224.111 135.667,224.482 135.518,224.667 135.333 C 224.850 135.150,225.102 135.000,225.228 135.000 C 225.353 135.000,225.646 134.850,225.879 134.667 C 226.112 134.483,226.366 134.332,226.443 134.330 C 226.762 134.323,228.078 133.294,228.359 132.831 C 228.571 132.483,228.793 132.333,229.096 132.333 C 229.391 132.333,229.559 132.226,229.618 132.000 C 229.683 131.753,229.846 131.667,230.247 131.667 C 230.545 131.667,230.979 131.517,231.212 131.333 C 231.445 131.150,231.744 131.000,231.875 131.000 C 232.007 131.000,232.251 130.850,232.417 130.667 C 232.583 130.483,232.901 130.333,233.125 130.333 C 233.391 130.333,233.561 130.218,233.618 130.000 C 233.684 129.747,233.846 129.667,234.285 129.667 C 234.724 129.667,234.886 129.586,234.952 129.333 C 235.008 129.117,235.179 129.000,235.438 129.000 C 235.657 129.000,235.965 128.850,236.122 128.667 C 236.279 128.483,236.523 128.333,236.664 128.333 C 236.805 128.333,237.013 128.183,237.128 128.000 C 237.242 127.817,237.513 127.667,237.729 127.667 C 237.945 127.667,238.312 127.517,238.545 127.333 C 238.779 127.150,239.045 127.000,239.139 127.000 C 239.415 127.000,240.333 126.156,240.333 125.902 C 240.333 125.762,240.503 125.667,240.752 125.667 C 240.982 125.667,241.298 125.517,241.455 125.333 C 241.612 125.150,241.856 125.000,241.997 125.000 C 242.138 125.000,242.347 124.850,242.461 124.667 C 242.582 124.473,242.850 124.333,243.100 124.333 C 243.391 124.333,243.560 124.225,243.618 124.000 C 243.683 123.753,243.846 123.667,244.247 123.667 C 244.545 123.667,244.979 123.517,245.212 123.333 C 245.445 123.150,245.745 123.000,245.879 123.000 C 246.012 123.000,246.312 122.850,246.545 122.667 C 246.779 122.483,247.096 122.333,247.250 122.333 C 247.405 122.333,247.570 122.183,247.618 122.000 C 247.680 121.766,247.846 121.667,248.177 121.667 C 248.448 121.667,248.740 121.535,248.866 121.356 C 248.985 121.185,249.327 120.991,249.625 120.926 C 249.926 120.860,250.167 120.702,250.167 120.570 C 250.167 120.440,250.287 120.333,250.434 120.333 C 250.581 120.333,250.925 120.146,251.197 119.917 C 251.469 119.688,251.799 119.500,251.929 119.500 C 252.060 119.500,252.167 119.388,252.167 119.250 C 252.167 119.112,252.279 119.000,252.415 119.000 C 252.552 119.000,252.758 118.850,252.872 118.667 C 253.013 118.441,253.261 118.333,253.639 118.333 C 254.058 118.333,254.220 118.250,254.285 118.000 C 254.347 117.764,254.512 117.667,254.851 117.667 C 255.150 117.667,255.409 117.541,255.539 117.333 C 255.653 117.150,255.879 117.000,256.040 117.000 C 256.306 117.000,256.309 117.027,256.077 117.292 M260.167 118.217 C 260.167 118.245,259.886 118.526,259.543 118.842 C 258.984 119.358,258.962 119.365,259.335 118.918 C 259.816 118.340,260.167 118.045,260.167 118.217 M257.500 121.558 C 257.500 121.589,257.344 121.756,257.154 121.928 C 256.897 122.161,256.822 122.178,256.863 121.995 C 256.892 121.860,257.029 121.699,257.167 121.637 C 257.486 121.492,257.500 121.489,257.500 121.558 M251.737 123.354 C 251.674 123.456,251.182 123.956,250.644 124.465 C 250.107 124.973,249.667 125.477,249.667 125.583 C 249.667 125.690,249.550 125.778,249.407 125.778 C 249.259 125.778,249.709 125.212,250.444 124.472 C 251.709 123.200,251.974 122.971,251.737 123.354 M148.540 128.719 C 148.500 128.794,148.326 128.728,148.154 128.572 C 147.982 128.416,147.880 128.227,147.927 128.150 C 148.035 127.975,148.640 128.536,148.540 128.719 M243.250 135.167 C 243.084 135.350,242.866 135.498,242.766 135.494 C 242.665 135.491,242.760 135.341,242.977 135.161 C 243.486 134.737,243.636 134.740,243.250 135.167 M235.712 136.289 C 235.644 136.466,235.581 136.494,235.539 136.366 C 235.502 136.255,235.384 136.217,235.277 136.281 C 235.171 136.345,235.186 136.271,235.311 136.117 C 235.584 135.780,235.862 135.899,235.712 136.289 M233.278 137.383 C 233.278 137.502,233.122 137.611,232.931 137.624 C 232.590 137.647,232.589 137.643,232.907 137.407 C 233.298 137.116,233.278 137.118,233.278 137.383 M167.831 138.131 C 168.161 138.398,168.167 138.428,167.891 138.427 C 167.722 138.425,167.452 138.292,167.292 138.129 C 166.892 137.724,167.330 137.725,167.831 138.131 M232.000 138.008 C 231.386 138.425,231.078 138.524,231.477 138.176 C 231.693 137.988,231.956 137.834,232.060 137.836 C 232.165 137.837,232.137 137.915,232.000 138.008 M230.502 138.915 C 230.388 139.051,230.238 139.127,230.167 139.083 C 229.996 138.978,229.638 139.416,229.779 139.557 C 229.840 139.617,229.750 139.667,229.580 139.667 C 229.317 139.667,229.342 139.592,229.750 139.167 C 230.249 138.646,230.908 138.425,230.502 138.915 M234.794 140.255 C 234.164 140.840,233.589 141.078,234.000 140.583 C 234.114 140.446,234.310 140.333,234.436 140.333 C 234.561 140.333,234.758 140.183,234.872 140.000 C 234.987 139.817,235.156 139.669,235.248 139.671 C 235.341 139.674,235.137 139.936,234.794 140.255 M165.172 140.569 C 165.403 140.870,165.395 140.876,165.037 140.686 C 164.828 140.574,164.704 140.407,164.762 140.314 C 164.820 140.221,164.880 140.168,164.897 140.197 C 164.914 140.226,165.038 140.394,165.172 140.569 M173.256 140.841 C 173.527 141.139,173.530 141.168,173.282 141.073 C 173.127 141.013,173.000 140.893,173.000 140.806 C 173.000 140.718,172.913 140.701,172.808 140.766 C 172.688 140.840,172.660 140.812,172.734 140.692 C 172.890 140.441,172.897 140.443,173.256 140.841 M227.333 143.754 C 227.333 143.791,227.196 143.895,227.028 143.985 C 226.807 144.103,226.722 144.091,226.722 143.941 C 226.722 143.827,226.860 143.723,227.028 143.710 C 227.196 143.698,227.333 143.718,227.333 143.754 M189.239 144.816 C 189.396 145.069,188.928 145.139,188.701 144.896 C 188.524 144.706,188.544 144.667,188.817 144.667 C 188.998 144.667,189.188 144.734,189.239 144.816 M191.960 145.281 C 191.801 145.323,191.501 145.324,191.294 145.285 C 191.086 145.245,191.217 145.211,191.583 145.209 C 191.950 145.207,192.120 145.239,191.960 145.281 M207.958 145.282 C 207.798 145.323,207.535 145.323,207.375 145.282 C 207.215 145.240,207.346 145.205,207.667 145.205 C 207.987 145.205,208.119 145.240,207.958 145.282 M184.167 147.167 C 184.362 147.293,184.319 147.329,183.968 147.331 C 183.721 147.332,183.473 147.258,183.417 147.167 C 183.285 146.954,183.837 146.954,184.167 147.167 M215.908 147.145 C 215.821 147.225,215.412 147.336,215.000 147.392 C 214.256 147.493,214.254 147.492,214.750 147.261 C 215.309 147.000,216.159 146.915,215.908 147.145 M211.958 148.115 C 211.798 148.157,211.535 148.157,211.375 148.115 C 211.215 148.073,211.346 148.039,211.667 148.039 C 211.987 148.039,212.119 148.073,211.958 148.115 M190.417 148.333 C 190.360 148.425,190.406 148.500,190.518 148.500 C 190.630 148.500,190.675 148.547,190.618 148.604 C 190.561 148.661,190.382 148.657,190.220 148.595 C 189.969 148.499,189.962 148.459,190.171 148.327 C 190.488 148.127,190.544 148.128,190.417 148.333 " stroke="none" fill="#030303" fill-rule="evenodd"></path><path id="path1" d="M184.907 1.411 C 184.729 1.546,184.658 1.656,184.750 1.656 C 184.842 1.656,185.062 1.546,185.240 1.411 C 185.418 1.277,185.489 1.167,185.397 1.167 C 185.305 1.167,185.085 1.277,184.907 1.411 M191.542 3.615 C 191.702 3.657,191.965 3.657,192.125 3.615 C 192.285 3.573,192.154 3.539,191.833 3.539 C 191.512 3.539,191.381 3.573,191.542 3.615 M207.208 3.615 C 207.369 3.657,207.631 3.657,207.792 3.615 C 207.952 3.573,207.821 3.539,207.500 3.539 C 207.179 3.539,207.048 3.573,207.208 3.615 M214.143 4.491 C 214.360 4.679,214.622 4.832,214.727 4.831 C 214.926 4.828,214.649 4.608,214.083 4.318 C 213.821 4.184,213.834 4.221,214.143 4.491 M217.239 4.982 C 217.451 5.325,217.944 5.506,217.944 5.241 C 217.944 5.108,217.910 5.035,217.867 5.077 C 217.824 5.120,217.640 5.075,217.458 4.978 C 217.220 4.850,217.158 4.851,217.239 4.982 M170.907 5.411 C 170.729 5.546,170.658 5.656,170.750 5.656 C 170.842 5.656,171.062 5.546,171.240 5.411 C 171.418 5.277,171.489 5.167,171.397 5.167 C 171.305 5.167,171.085 5.277,170.907 5.411 M169.574 6.078 C 169.396 6.213,169.325 6.323,169.417 6.323 C 169.508 6.323,169.729 6.213,169.907 6.078 C 170.085 5.943,170.155 5.833,170.064 5.833 C 169.972 5.833,169.751 5.943,169.574 6.078 M229.426 6.078 C 229.604 6.213,229.825 6.323,229.917 6.323 C 230.008 6.323,229.938 6.213,229.760 6.078 C 229.582 5.943,229.361 5.833,229.270 5.833 C 229.178 5.833,229.249 5.943,229.426 6.078 M176.907 6.516 C 176.762 6.750,177.126 6.833,177.312 6.609 C 177.450 6.443,177.432 6.389,177.240 6.389 C 177.100 6.389,176.950 6.446,176.907 6.516 M174.023 7.672 L 173.630 8.000 174.044 8.000 C 174.273 8.000,174.554 7.886,174.670 7.746 C 174.848 7.532,174.834 7.510,174.580 7.608 C 174.373 7.687,174.316 7.662,174.399 7.528 C 174.566 7.258,174.481 7.291,174.023 7.672 M165.500 8.083 C 165.382 8.225,165.323 8.379,165.369 8.425 C 165.415 8.471,165.549 8.392,165.667 8.250 C 165.784 8.108,165.843 7.954,165.798 7.909 C 165.752 7.863,165.618 7.941,165.500 8.083 M228.000 9.088 C 228.000 9.125,228.137 9.229,228.306 9.318 C 228.526 9.436,228.611 9.424,228.611 9.274 C 228.611 9.160,228.474 9.056,228.306 9.044 C 228.137 9.031,228.000 9.051,228.000 9.088 M169.385 9.781 C 169.402 10.132,169.418 10.135,169.863 9.873 C 170.381 9.567,170.379 9.375,169.861 9.652 C 169.612 9.785,169.507 9.778,169.447 9.624 C 169.403 9.510,169.375 9.580,169.385 9.781 M164.907 11.850 C 164.762 12.083,165.126 12.166,165.312 11.943 C 165.450 11.776,165.432 11.722,165.240 11.722 C 165.100 11.722,164.950 11.780,164.907 11.850 M241.612 12.808 C 241.663 13.003,241.763 13.127,241.833 13.083 C 241.988 12.987,242.368 13.409,242.241 13.536 C 242.192 13.585,242.268 13.670,242.409 13.724 C 242.830 13.886,242.704 13.602,242.093 13.009 C 241.614 12.545,241.534 12.512,241.612 12.808 M152.108 16.806 C 151.885 17.053,151.877 17.111,152.070 17.111 C 152.202 17.111,152.345 16.974,152.389 16.806 C 152.433 16.637,152.450 16.500,152.427 16.500 C 152.404 16.500,152.261 16.637,152.108 16.806 M156.407 17.736 C 156.229 17.866,156.128 18.017,156.182 18.071 C 156.236 18.125,156.416 18.018,156.582 17.834 C 156.936 17.443,156.864 17.402,156.407 17.736 M242.734 17.809 C 243.087 18.206,243.167 18.243,243.167 18.006 C 243.167 17.917,242.998 17.757,242.792 17.648 C 242.419 17.453,242.418 17.453,242.734 17.809 M150.487 18.290 C 150.193 18.623,150.178 18.669,150.430 18.457 C 150.621 18.297,150.815 18.204,150.861 18.250 C 150.907 18.296,150.944 18.221,150.944 18.083 C 150.944 17.763,150.960 17.755,150.487 18.290 M249.558 19.139 C 249.710 19.306,249.796 19.481,249.750 19.527 C 249.704 19.573,249.780 19.611,249.920 19.611 C 250.114 19.611,250.088 19.521,249.807 19.222 C 249.379 18.766,249.152 18.690,249.558 19.139 M256.333 26.167 C 256.431 26.350,256.596 26.500,256.698 26.500 C 256.801 26.500,256.749 26.350,256.583 26.167 C 256.417 25.983,256.253 25.833,256.218 25.833 C 256.183 25.833,256.235 25.983,256.333 26.167 M254.459 28.777 C 254.575 28.824,254.633 28.920,254.588 28.992 C 254.544 29.064,254.674 29.263,254.876 29.436 C 255.182 29.697,255.206 29.701,255.018 29.458 C 254.835 29.221,254.833 29.167,255.011 29.167 C 255.145 29.167,255.104 29.071,254.907 28.922 C 254.729 28.787,254.508 28.681,254.417 28.685 C 254.325 28.689,254.344 28.731,254.459 28.777 M256.000 30.947 C 256.000 31.029,256.392 31.468,256.872 31.923 C 257.715 32.723,257.584 32.514,256.516 31.357 C 256.232 31.050,256.000 30.865,256.000 30.947 M142.333 31.833 C 142.122 32.017,142.024 32.167,142.115 32.167 C 142.207 32.167,142.417 32.017,142.583 31.833 C 142.749 31.650,142.847 31.500,142.801 31.500 C 142.755 31.500,142.545 31.650,142.333 31.833 M137.684 32.589 C 137.086 33.270,137.069 33.318,137.444 33.263 C 137.597 33.241,137.742 33.091,137.765 32.930 C 137.789 32.769,137.938 32.494,138.097 32.319 C 138.255 32.143,138.344 32.000,138.293 32.000 C 138.243 32.000,137.968 32.265,137.684 32.589 M136.012 35.402 C 135.879 35.563,135.872 35.671,135.992 35.745 C 136.088 35.804,136.172 35.830,136.179 35.802 C 136.341 35.148,136.302 35.053,136.012 35.402 M265.613 40.119 C 265.555 40.212,265.656 40.423,265.837 40.587 C 266.212 40.926,266.279 40.717,265.942 40.257 C 265.808 40.074,265.675 40.018,265.613 40.119 M268.266 45.475 C 268.199 45.582,268.243 45.668,268.365 45.669 C 268.526 45.671,268.517 45.719,268.333 45.852 C 268.126 46.000,268.137 46.014,268.394 45.930 C 268.627 45.855,268.679 45.894,268.604 46.090 C 268.546 46.240,268.574 46.307,268.669 46.249 C 268.890 46.112,268.876 45.956,268.609 45.590 C 268.453 45.377,268.348 45.342,268.266 45.475 M130.116 46.823 C 129.710 47.510,129.772 47.688,130.190 47.035 C 130.383 46.733,130.510 46.454,130.470 46.415 C 130.431 46.376,130.272 46.559,130.116 46.823 M133.628 47.060 C 133.469 47.393,133.263 47.667,133.169 47.667 C 133.076 47.667,133.000 47.759,133.000 47.872 C 133.000 47.985,133.232 47.845,133.516 47.560 C 133.806 47.271,134.007 46.914,133.975 46.748 C 133.933 46.533,133.838 46.618,133.628 47.060 M128.648 51.042 C 128.453 51.415,128.453 51.415,128.809 51.099 C 129.206 50.746,129.243 50.667,129.006 50.667 C 128.917 50.667,128.757 50.835,128.648 51.042 M269.000 58.583 C 269.000 58.813,269.065 59.000,269.144 59.000 C 269.223 59.000,269.251 58.813,269.207 58.583 C 269.164 58.354,269.099 58.167,269.064 58.167 C 269.029 58.167,269.000 58.354,269.000 58.583 M200.439 59.179 C 200.198 59.369,200.000 59.590,200.000 59.671 C 200.000 59.752,200.184 59.634,200.409 59.409 C 201.212 58.606,205.315 58.848,205.666 59.719 C 205.773 59.987,205.815 60.009,205.823 59.804 C 205.850 59.090,205.080 58.833,202.917 58.833 C 201.107 58.833,200.829 58.872,200.439 59.179 M222.776 58.958 C 222.733 59.027,224.171 59.061,225.971 59.035 C 230.728 58.964,230.723 58.798,226.107 63.500 L 222.917 66.750 226.136 63.583 C 230.999 58.801,230.999 58.833,226.171 58.833 C 224.346 58.833,222.818 58.890,222.776 58.958 M220.912 60.542 L 219.750 61.750 220.958 60.588 C 221.623 59.949,222.167 59.405,222.167 59.379 C 222.167 59.257,221.992 59.419,220.912 60.542 M269.167 59.936 C 269.167 60.028,269.277 60.249,269.411 60.426 C 269.546 60.604,269.656 60.675,269.656 60.583 C 269.656 60.492,269.546 60.271,269.411 60.093 C 269.277 59.915,269.167 59.845,269.167 59.936 M199.913 73.583 C 199.913 81.100,199.933 84.151,199.958 80.363 C 199.983 76.574,199.983 70.424,199.958 66.696 C 199.933 62.967,199.913 66.067,199.913 73.583 M205.833 73.644 C 205.833 87.067,205.832 87.124,205.484 87.603 L 205.134 88.083 205.567 87.616 L 206.000 87.148 206.000 73.657 C 206.000 66.237,205.963 60.167,205.917 60.167 C 205.871 60.167,205.833 66.232,205.833 73.644 M272.931 61.605 C 272.874 61.754,272.896 61.960,272.979 62.063 C 273.063 62.166,273.168 62.400,273.213 62.583 C 273.258 62.767,273.303 62.602,273.314 62.218 C 273.334 61.492,273.111 61.136,272.931 61.605 M273.372 64.333 C 273.372 64.654,273.406 64.785,273.448 64.625 C 273.490 64.465,273.490 64.202,273.448 64.042 C 273.406 63.881,273.372 64.012,273.372 64.333 M128.879 65.000 C 128.879 65.412,128.911 65.581,128.951 65.375 C 128.991 65.169,128.991 64.831,128.951 64.625 C 128.911 64.419,128.879 64.587,128.879 65.000 M213.997 67.458 L 212.417 69.083 214.042 67.503 C 215.551 66.036,215.742 65.833,215.622 65.833 C 215.597 65.833,214.866 66.565,213.997 67.458 M176.583 66.167 C 176.159 66.349,176.597 66.349,177.167 66.167 C 177.502 66.059,177.518 66.032,177.250 66.028 C 177.067 66.026,176.767 66.088,176.583 66.167 M273.601 66.265 C 273.462 66.627,273.474 66.702,273.655 66.591 C 273.740 66.538,273.842 66.665,273.882 66.873 C 273.936 67.154,273.960 67.114,273.977 66.718 C 274.002 66.136,273.761 65.846,273.601 66.265 M191.833 66.942 C 192.246 67.183,192.808 67.576,193.083 67.815 L 193.582 68.250 193.176 67.789 C 192.784 67.343,191.500 66.498,191.220 66.502 C 191.145 66.502,191.421 66.701,191.833 66.942 M219.339 70.077 C 217.557 71.861,216.133 73.343,216.174 73.369 C 216.216 73.395,217.710 71.935,219.495 70.125 C 221.280 68.315,222.705 66.833,222.660 66.833 C 222.616 66.833,221.122 68.293,219.339 70.077 M274.042 68.417 C 274.044 68.783,274.078 68.914,274.118 68.706 C 274.158 68.499,274.156 68.199,274.115 68.040 C 274.073 67.880,274.040 68.050,274.042 68.417 M128.391 68.752 C 128.279 68.993,128.262 69.206,128.350 69.260 C 128.534 69.374,128.717 68.953,128.639 68.595 C 128.599 68.411,128.528 68.456,128.391 68.752 M270.539 69.667 C 270.539 69.987,270.573 70.119,270.615 69.958 C 270.657 69.798,270.657 69.535,270.615 69.375 C 270.573 69.215,270.539 69.346,270.539 69.667 M128.231 72.250 C 128.232 73.442,128.258 73.907,128.290 73.285 C 128.323 72.662,128.322 71.687,128.290 71.118 C 128.257 70.549,128.231 71.058,128.231 72.250 M125.340 70.742 C 125.230 70.875,125.174 71.119,125.217 71.284 C 125.273 71.498,125.301 71.465,125.317 71.167 C 125.334 70.838,125.372 70.803,125.495 70.998 C 125.618 71.193,125.646 71.166,125.624 70.873 C 125.591 70.432,125.596 70.434,125.340 70.742 M208.796 70.622 C 209.188 70.657,209.788 70.657,210.129 70.621 C 210.471 70.585,210.150 70.557,209.417 70.557 C 208.683 70.558,208.404 70.587,208.796 70.622 M270.692 71.865 C 270.666 72.506,270.895 72.848,271.061 72.416 C 271.113 72.279,271.089 72.167,271.006 72.167 C 270.923 72.167,270.824 71.960,270.786 71.708 C 270.729 71.333,270.712 71.362,270.692 71.865 M207.065 73.583 C 207.065 74.775,207.092 75.241,207.124 74.618 C 207.156 73.996,207.156 73.021,207.123 72.451 C 207.091 71.882,207.064 72.392,207.065 73.583 M177.875 71.998 C 177.577 72.180,177.339 72.423,177.346 72.539 C 177.357 72.708,177.377 72.708,177.445 72.538 C 177.745 71.793,187.525 71.407,188.842 72.088 C 189.112 72.227,189.333 72.304,189.333 72.259 C 189.333 71.560,178.980 71.324,177.875 71.998 M177.078 83.500 C 177.078 89.229,177.099 91.573,177.125 88.708 C 177.150 85.844,177.150 81.156,177.125 78.292 C 177.099 75.427,177.078 77.771,177.078 83.500 M208.500 76.427 C 209.077 76.553,210.976 76.588,210.788 76.469 C 210.676 76.397,210.058 76.346,209.417 76.355 C 208.775 76.364,208.362 76.397,208.500 76.427 M216.583 82.137 C 219.608 85.190,222.233 87.768,222.417 87.866 C 222.600 87.965,222.711 88.016,222.663 87.981 C 222.615 87.946,219.990 85.367,216.829 82.251 L 211.083 76.586 216.583 82.137 M128.350 77.532 C 128.400 78.186,128.633 78.590,128.650 78.052 C 128.659 77.759,128.592 77.473,128.500 77.417 C 128.408 77.360,128.341 77.412,128.350 77.532 M270.780 78.775 C 270.718 78.838,270.677 79.158,270.689 79.486 C 270.707 79.948,270.730 79.989,270.789 79.667 C 270.832 79.438,270.930 79.211,271.008 79.162 C 271.086 79.114,271.092 78.982,271.021 78.868 C 270.951 78.755,270.843 78.713,270.780 78.775 M270.545 81.167 C 270.545 81.579,270.578 81.748,270.618 81.542 C 270.657 81.335,270.657 80.998,270.618 80.792 C 270.578 80.585,270.545 80.754,270.545 81.167 M224.917 82.333 C 225.553 82.975,226.112 83.500,226.158 83.500 C 226.204 83.500,225.720 82.975,225.083 82.333 C 224.447 81.692,223.888 81.167,223.842 81.167 C 223.796 81.167,224.280 81.692,224.917 82.333 M195.372 82.167 C 195.372 82.487,195.406 82.619,195.448 82.458 C 195.490 82.298,195.490 82.035,195.448 81.875 C 195.406 81.715,195.372 81.846,195.372 82.167 M274.039 82.333 C 274.039 82.654,274.073 82.785,274.115 82.625 C 274.157 82.465,274.157 82.202,274.115 82.042 C 274.073 81.881,274.039 82.012,274.039 82.333 M128.875 82.917 C 128.877 83.283,128.911 83.414,128.951 83.206 C 128.991 82.999,128.990 82.699,128.948 82.540 C 128.906 82.380,128.874 82.550,128.875 82.917 M273.856 83.208 C 273.844 83.369,273.761 83.500,273.672 83.500 C 273.583 83.500,273.556 83.618,273.611 83.761 C 273.760 84.151,274.043 83.781,273.953 83.311 C 273.908 83.070,273.870 83.030,273.856 83.208 M227.833 85.250 C 228.608 86.029,229.280 86.667,229.326 86.667 C 229.372 86.667,228.775 86.029,228.000 85.250 C 227.225 84.471,226.553 83.833,226.507 83.833 C 226.462 83.833,227.058 84.471,227.833 85.250 M193.342 85.908 L 192.600 86.750 193.417 85.964 C 193.866 85.532,194.200 85.153,194.159 85.122 C 194.117 85.091,193.750 85.445,193.342 85.908 M229.653 87.292 C 229.733 87.867,229.745 87.879,229.800 87.438 C 229.833 87.175,229.794 86.894,229.713 86.813 C 229.629 86.729,229.604 86.934,229.653 87.292 M273.189 87.092 C 273.177 87.280,273.085 87.515,272.985 87.615 C 272.855 87.745,272.855 87.827,272.987 87.908 C 273.220 88.053,273.381 87.637,273.286 87.137 C 273.222 86.801,273.209 86.795,273.189 87.092 M178.333 87.313 C 178.333 87.476,178.981 88.082,179.051 87.985 C 179.078 87.947,178.928 87.751,178.717 87.548 C 178.506 87.345,178.333 87.239,178.333 87.313 M200.000 87.494 C 200.000 87.583,200.169 87.743,200.375 87.852 C 200.748 88.047,200.748 88.047,200.433 87.691 C 200.080 87.294,200.000 87.257,200.000 87.494 M269.667 88.083 C 269.667 88.313,269.695 88.500,269.731 88.500 C 269.766 88.500,269.830 88.313,269.874 88.083 C 269.918 87.854,269.889 87.667,269.810 87.667 C 269.731 87.667,269.667 87.854,269.667 88.083 M181.885 88.125 C 183.151 88.153,185.176 88.153,186.385 88.124 C 187.594 88.096,186.558 88.073,184.083 88.073 C 181.608 88.073,180.619 88.096,181.885 88.125 M201.881 88.123 C 202.412 88.157,203.237 88.156,203.714 88.123 C 204.192 88.089,203.758 88.062,202.750 88.062 C 201.742 88.063,201.351 88.090,201.881 88.123 M224.375 88.124 C 225.177 88.155,226.490 88.155,227.292 88.124 C 228.094 88.094,227.438 88.069,225.833 88.069 C 224.229 88.069,223.573 88.094,224.375 88.124 M130.311 92.125 C 130.408 92.307,130.453 92.491,130.411 92.534 C 130.368 92.576,130.442 92.611,130.574 92.611 C 130.839 92.611,130.658 92.117,130.316 91.906 C 130.185 91.825,130.183 91.886,130.311 92.125 M129.351 99.699 C 129.444 99.873,129.601 99.957,129.708 99.891 C 129.851 99.803,129.849 99.755,129.699 99.705 C 129.588 99.668,129.533 99.582,129.575 99.514 C 129.617 99.445,129.547 99.389,129.418 99.389 C 129.242 99.389,129.225 99.465,129.351 99.699 M269.749 99.471 C 269.794 99.516,269.747 99.653,269.645 99.776 C 269.513 99.935,269.512 100.000,269.640 100.000 C 269.740 100.000,269.895 99.862,269.985 99.694 C 270.109 99.464,270.090 99.389,269.908 99.389 C 269.775 99.389,269.704 99.426,269.749 99.471 M129.836 101.250 C 129.836 101.342,129.985 101.642,130.167 101.917 C 130.349 102.192,130.498 102.342,130.498 102.250 C 130.498 102.158,130.349 101.858,130.167 101.583 C 129.985 101.308,129.836 101.158,129.836 101.250 M131.833 105.283 C 131.833 105.506,132.291 106.097,132.389 106.000 C 132.434 105.954,132.328 105.740,132.152 105.523 C 131.977 105.307,131.833 105.199,131.833 105.283 M132.500 106.793 C 132.500 106.884,132.612 107.053,132.750 107.167 C 132.889 107.282,133.000 107.300,133.000 107.207 C 133.000 107.116,132.887 106.947,132.750 106.833 C 132.611 106.718,132.500 106.700,132.500 106.793 M266.472 107.333 C 266.319 107.501,266.238 107.683,266.292 107.737 C 266.346 107.791,266.246 108.007,266.070 108.218 C 265.894 108.428,265.994 108.354,266.292 108.053 C 266.590 107.751,266.833 107.391,266.833 107.252 C 266.833 106.946,266.822 106.949,266.472 107.333 M261.883 115.538 C 261.505 116.026,261.482 116.224,261.843 115.880 C 262.057 115.676,262.190 115.468,262.139 115.417 C 262.089 115.367,261.973 115.421,261.883 115.538 M137.618 115.985 C 137.820 116.154,137.950 116.328,137.906 116.372 C 137.861 116.416,137.934 116.542,138.066 116.652 C 138.259 116.812,138.299 116.801,138.269 116.593 C 138.228 116.315,137.600 115.663,137.382 115.672 C 137.309 115.675,137.416 115.816,137.618 115.985 M257.546 116.042 C 257.219 116.465,257.187 116.611,257.424 116.611 C 257.557 116.611,257.632 116.576,257.589 116.534 C 257.547 116.491,257.587 116.316,257.678 116.145 C 257.868 115.791,257.788 115.729,257.546 116.042 M259.917 118.296 C 259.825 118.364,259.563 118.644,259.335 118.918 C 258.962 119.365,258.984 119.358,259.543 118.842 C 260.108 118.322,260.246 118.162,260.125 118.169 C 260.102 118.171,260.008 118.228,259.917 118.296 M257.167 121.637 C 257.029 121.699,256.892 121.860,256.863 121.995 C 256.822 122.178,256.897 122.161,257.154 121.928 C 257.623 121.503,257.627 121.428,257.167 121.637 M256.333 122.333 C 256.137 122.460,256.132 122.495,256.312 122.497 C 256.505 122.500,256.505 122.546,256.315 122.792 C 256.127 123.034,256.151 123.031,256.457 122.769 C 256.925 122.371,256.824 122.016,256.333 122.333 M250.444 124.472 C 249.709 125.212,249.259 125.778,249.407 125.778 C 249.550 125.778,249.667 125.690,249.667 125.583 C 249.667 125.477,250.107 124.973,250.644 124.465 C 251.539 123.619,251.941 123.167,251.798 123.167 C 251.767 123.167,251.158 123.754,250.444 124.472 M147.927 128.150 C 147.880 128.227,147.982 128.416,148.154 128.572 C 148.326 128.728,148.500 128.794,148.540 128.719 C 148.640 128.536,148.035 127.975,147.927 128.150 M242.977 135.161 C 242.760 135.341,242.665 135.491,242.766 135.494 C 242.866 135.498,243.084 135.350,243.250 135.167 C 243.636 134.740,243.486 134.737,242.977 135.161 M235.311 136.117 C 235.186 136.271,235.171 136.345,235.277 136.281 C 235.384 136.217,235.502 136.255,235.539 136.366 C 235.581 136.494,235.644 136.466,235.712 136.289 C 235.862 135.899,235.584 135.780,235.311 136.117 M232.907 137.407 C 232.589 137.643,232.590 137.647,232.931 137.624 C 233.122 137.611,233.278 137.502,233.278 137.383 C 233.278 137.118,233.298 137.116,232.907 137.407 M167.292 138.129 C 167.452 138.292,167.722 138.425,167.891 138.427 C 168.167 138.428,168.161 138.398,167.831 138.131 C 167.330 137.725,166.892 137.724,167.292 138.129 M231.477 138.176 C 231.168 138.445,231.155 138.482,231.417 138.348 C 231.982 138.059,232.259 137.839,232.060 137.836 C 231.956 137.834,231.693 137.988,231.477 138.176 M229.750 139.167 C 229.342 139.592,229.317 139.667,229.580 139.667 C 229.750 139.667,229.840 139.617,229.779 139.557 C 229.638 139.416,229.996 138.978,230.167 139.083 C 230.238 139.127,230.388 139.051,230.502 138.915 C 230.908 138.425,230.249 138.646,229.750 139.167 M234.872 140.000 C 234.758 140.183,234.561 140.333,234.436 140.333 C 234.310 140.333,234.114 140.446,234.000 140.583 C 233.854 140.760,233.848 140.833,233.982 140.833 C 234.219 140.833,235.479 139.677,235.248 139.671 C 235.156 139.669,234.987 139.817,234.872 140.000 M164.762 140.314 C 164.704 140.407,164.828 140.574,165.037 140.686 C 165.395 140.876,165.403 140.870,165.172 140.569 C 165.038 140.394,164.914 140.226,164.897 140.197 C 164.880 140.168,164.820 140.221,164.762 140.314 M172.734 140.692 C 172.660 140.812,172.688 140.840,172.808 140.766 C 172.913 140.701,173.000 140.718,173.000 140.806 C 173.000 140.893,173.127 141.013,173.282 141.073 C 173.530 141.168,173.527 141.139,173.256 140.841 C 172.897 140.443,172.890 140.441,172.734 140.692 M182.000 143.731 C 182.000 143.767,182.225 143.829,182.500 143.869 C 182.775 143.909,183.000 143.880,183.000 143.804 C 183.000 143.729,182.775 143.667,182.500 143.667 C 182.225 143.667,182.000 143.696,182.000 143.731 M226.722 143.941 C 226.722 144.091,226.807 144.103,227.028 143.985 C 227.196 143.895,227.333 143.791,227.333 143.754 C 227.333 143.718,227.196 143.698,227.028 143.710 C 226.860 143.723,226.722 143.827,226.722 143.941 M188.701 144.896 C 188.819 145.022,189.009 145.089,189.123 145.045 C 189.421 144.931,189.208 144.667,188.817 144.667 C 188.544 144.667,188.524 144.706,188.701 144.896 M191.294 145.285 C 191.501 145.324,191.801 145.323,191.960 145.281 C 192.120 145.239,191.950 145.207,191.583 145.209 C 191.217 145.211,191.086 145.245,191.294 145.285 M207.375 145.282 C 207.535 145.323,207.798 145.323,207.958 145.282 C 208.119 145.240,207.987 145.205,207.667 145.205 C 207.346 145.205,207.215 145.240,207.375 145.282 M183.417 147.167 C 183.473 147.258,183.721 147.332,183.968 147.331 C 184.319 147.329,184.362 147.293,184.167 147.167 C 183.837 146.954,183.285 146.954,183.417 147.167 M214.750 147.261 C 214.254 147.492,214.256 147.493,215.000 147.392 C 215.412 147.336,215.821 147.225,215.908 147.145 C 216.159 146.915,215.309 147.000,214.750 147.261 M211.375 148.115 C 211.535 148.157,211.798 148.157,211.958 148.115 C 212.119 148.073,211.987 148.039,211.667 148.039 C 211.346 148.039,211.215 148.073,211.375 148.115 M190.171 148.327 C 189.962 148.459,189.969 148.499,190.220 148.595 C 190.382 148.657,190.561 148.661,190.618 148.604 C 190.675 148.547,190.630 148.500,190.518 148.500 C 190.406 148.500,190.360 148.425,190.417 148.333 C 190.544 148.128,190.488 148.127,190.171 148.327 " stroke="none" fill="#333333" fill-rule="evenodd"></path><path id="path2" d="M200.409 59.409 L 200.000 59.818 200.000 73.547 L 200.000 87.275 200.386 87.638 C 200.741 87.972,200.942 88.000,202.957 88.000 C 206.208 88.000,205.848 89.859,205.794 73.376 L 205.750 59.637 205.357 59.319 C 204.689 58.778,200.972 58.846,200.409 59.409 M222.583 59.191 C 222.400 59.291,219.720 61.893,216.628 64.973 L 211.007 70.575 209.323 70.662 C 207.128 70.777,207.167 70.724,207.167 73.595 C 207.167 76.233,207.161 76.224,208.981 76.296 C 209.679 76.324,210.438 76.387,210.667 76.436 C 210.926 76.491,213.255 78.687,216.846 82.262 L 222.608 88.000 225.762 87.998 C 231.061 87.994,231.281 88.577,222.875 80.357 C 219.041 76.608,216.167 73.671,216.167 73.502 C 216.167 73.334,218.967 70.461,222.679 66.821 C 229.281 60.348,229.768 59.807,229.477 59.287 C 229.284 58.942,223.197 58.858,222.583 59.191 M205.058 59.645 C 205.522 60.031,205.476 87.245,205.011 87.494 C 204.549 87.742,200.952 87.719,200.700 87.467 C 200.334 87.101,200.420 60.032,200.788 59.625 C 201.148 59.227,204.575 59.243,205.058 59.645 M228.918 59.529 C 229.201 59.813,228.600 60.526,225.617 63.448 C 217.820 71.083,215.854 73.068,215.761 73.398 C 215.678 73.692,216.786 74.858,222.451 80.438 C 230.510 88.375,230.184 87.667,225.777 87.667 L 222.762 87.667 217.256 82.193 C 210.541 75.517,211.154 76.000,209.398 76.000 C 207.530 76.000,207.449 75.883,207.527 73.325 C 207.599 70.942,207.699 70.833,209.804 70.833 L 211.238 70.833 216.744 65.357 C 219.772 62.345,222.438 59.753,222.667 59.598 C 223.094 59.308,228.637 59.247,228.918 59.529 M176.802 66.240 C 174.877 66.782,172.823 68.427,172.015 70.075 C 171.209 71.717,171.179 72.201,171.173 83.383 L 171.167 93.848 171.576 94.258 C 171.968 94.650,172.073 94.667,174.159 94.667 C 177.351 94.667,177.000 96.022,177.000 83.687 C 177.000 74.887,177.037 73.286,177.251 72.774 C 177.699 71.701,177.891 71.667,183.419 71.667 C 190.283 71.667,189.819 71.279,189.827 77.016 L 189.833 81.116 189.242 81.724 L 188.651 82.333 184.086 82.333 C 179.631 82.333,178.761 82.419,178.464 82.885 C 178.104 83.452,178.324 87.172,178.742 87.591 L 179.152 88.000 184.246 88.000 C 191.142 88.000,193.320 87.196,194.624 84.167 C 194.763 83.846,194.997 83.358,195.146 83.083 C 195.660 82.133,195.541 72.047,195.000 70.750 C 194.142 68.690,193.104 67.560,191.227 66.643 L 190.083 66.083 183.833 66.052 C 179.086 66.028,177.396 66.073,176.802 66.240 M189.883 66.596 C 194.118 67.694,195.250 69.924,195.250 77.167 C 195.250 84.231,194.159 86.261,189.743 87.411 C 188.243 87.802,179.574 87.785,179.138 87.391 C 178.874 87.152,178.636 82.991,178.875 82.800 C 178.898 82.782,181.132 82.726,183.840 82.675 L 188.764 82.583 189.293 82.167 C 190.118 81.517,190.195 81.011,190.136 76.634 L 190.083 72.685 189.509 72.092 L 188.935 71.500 183.421 71.500 C 178.593 71.500,177.859 71.534,177.519 71.772 C 176.668 72.368,176.667 72.386,176.667 83.474 C 176.667 95.557,176.972 94.226,174.179 94.305 C 171.348 94.385,171.646 95.790,171.703 82.647 L 171.750 71.583 172.167 70.592 C 172.989 68.635,174.839 67.152,177.167 66.585 C 178.599 66.235,188.525 66.244,189.883 66.596 " stroke="none" fill="#163d50" fill-rule="evenodd"></path><path id="path3" d="M200.788 59.625 C 200.420 60.032,200.334 87.101,200.700 87.467 C 200.952 87.719,204.549 87.742,205.011 87.494 C 205.476 87.245,205.522 60.031,205.058 59.645 C 204.575 59.243,201.148 59.227,200.788 59.625 M222.667 59.598 C 222.438 59.753,219.772 62.345,216.744 65.357 L 211.238 70.833 209.804 70.833 C 207.699 70.833,207.599 70.942,207.527 73.325 C 207.449 75.883,207.530 76.000,209.398 76.000 C 211.154 76.000,210.541 75.517,217.256 82.193 L 222.762 87.667 225.777 87.667 C 230.184 87.667,230.510 88.375,222.451 80.438 C 216.786 74.858,215.678 73.692,215.761 73.398 C 215.854 73.068,217.820 71.083,225.617 63.448 C 228.600 60.526,229.201 59.813,228.918 59.529 C 228.637 59.247,223.094 59.308,222.667 59.598 M204.793 60.138 C 204.958 60.243,204.993 63.062,204.959 73.677 L 204.917 87.083 202.875 87.130 L 200.833 87.177 200.833 73.588 L 200.833 60.000 202.708 60.003 C 203.740 60.004,204.678 60.065,204.793 60.138 M228.083 60.166 C 228.226 60.397,223.930 64.831,222.324 66.111 C 221.209 67.000,215.167 73.235,215.167 73.497 C 215.167 73.740,217.566 76.194,225.413 83.980 C 227.111 85.664,228.500 87.071,228.500 87.105 C 228.500 87.139,227.213 87.167,225.641 87.167 L 222.782 87.167 217.142 81.544 C 210.847 75.268,211.398 75.694,209.561 75.678 C 207.970 75.665,208.005 75.712,208.005 73.583 C 208.005 71.483,207.993 71.500,209.397 71.500 C 211.143 71.500,211.283 71.392,217.149 65.518 C 220.063 62.600,222.553 60.170,222.682 60.119 C 223.110 59.950,227.976 59.992,228.083 60.166 M177.167 66.585 C 174.839 67.152,172.989 68.635,172.167 70.592 L 171.750 71.583 171.703 82.647 C 171.646 95.790,171.348 94.385,174.179 94.305 C 176.972 94.226,176.667 95.557,176.667 83.474 C 176.667 72.386,176.668 72.368,177.519 71.772 C 177.859 71.534,178.593 71.500,183.421 71.500 L 188.935 71.500 189.509 72.092 L 190.083 72.685 190.136 76.634 C 190.195 81.011,190.118 81.517,189.293 82.167 L 188.764 82.583 183.840 82.675 C 181.132 82.726,178.898 82.782,178.875 82.800 C 178.636 82.991,178.874 87.152,179.138 87.391 C 179.574 87.785,188.243 87.802,189.743 87.411 C 194.159 86.261,195.250 84.231,195.250 77.167 C 195.250 69.924,194.118 67.694,189.883 66.596 C 188.525 66.244,178.599 66.235,177.167 66.585 M190.331 67.192 C 192.513 67.929,194.147 69.649,194.433 71.510 C 194.495 71.917,194.651 72.458,194.779 72.711 C 195.137 73.421,194.993 80.632,194.587 82.333 C 193.668 86.180,191.477 87.194,184.229 87.128 L 179.417 87.083 179.417 85.000 L 179.417 82.917 184.372 82.833 L 189.327 82.750 189.840 82.237 C 190.541 81.536,190.724 80.128,190.626 76.167 C 190.497 70.868,190.902 71.140,183.229 71.202 L 177.352 71.250 176.995 71.633 C 176.366 72.309,176.333 72.881,176.333 83.356 C 176.333 92.572,176.306 93.641,176.070 93.732 C 175.925 93.788,174.987 93.833,173.986 93.833 L 172.167 93.833 172.167 82.666 C 172.167 71.817,172.176 71.481,172.500 70.877 C 172.683 70.535,172.833 70.153,172.833 70.029 C 172.833 69.482,175.102 67.614,176.008 67.415 C 176.307 67.349,176.784 67.194,177.068 67.071 C 178.049 66.643,189.003 66.744,190.331 67.192 " stroke="none" fill="#226282" fill-rule="evenodd"></path><path id="path4" d="M200.833 73.588 L 200.833 87.177 202.875 87.130 L 204.917 87.083 204.959 73.677 C 204.993 63.062,204.958 60.243,204.793 60.138 C 204.678 60.065,203.740 60.004,202.708 60.003 L 200.833 60.000 200.833 73.588 M222.682 60.119 C 222.553 60.170,220.063 62.600,217.149 65.518 C 211.283 71.392,211.143 71.500,209.397 71.500 C 207.993 71.500,208.005 71.483,208.005 73.583 C 208.005 75.712,207.970 75.665,209.561 75.678 C 211.398 75.694,210.847 75.268,217.142 81.544 L 222.782 87.167 225.641 87.167 C 227.213 87.167,228.500 87.139,228.500 87.105 C 228.500 87.071,227.111 85.664,225.413 83.980 C 217.566 76.194,215.167 73.740,215.167 73.497 C 215.167 73.235,221.209 67.000,222.324 66.111 C 223.930 64.831,228.226 60.397,228.083 60.166 C 227.976 59.992,223.110 59.950,222.682 60.119 M177.068 67.071 C 176.784 67.194,176.307 67.349,176.008 67.415 C 175.102 67.614,172.833 69.482,172.833 70.029 C 172.833 70.153,172.683 70.535,172.500 70.877 C 172.176 71.481,172.167 71.817,172.167 82.666 L 172.167 93.833 173.986 93.833 C 174.987 93.833,175.925 93.788,176.070 93.732 C 176.306 93.641,176.333 92.572,176.333 83.356 C 176.333 72.881,176.366 72.309,176.995 71.633 L 177.352 71.250 183.229 71.202 C 190.902 71.140,190.497 70.868,190.626 76.167 C 190.724 80.128,190.541 81.536,189.840 82.237 L 189.327 82.750 184.372 82.833 L 179.417 82.917 179.417 85.000 L 179.417 87.083 184.229 87.128 C 191.477 87.194,193.668 86.180,194.587 82.333 C 194.993 80.632,195.137 73.421,194.779 72.711 C 194.651 72.458,194.495 71.917,194.433 71.510 C 194.147 69.649,192.513 67.929,190.331 67.192 C 189.003 66.744,178.049 66.643,177.068 67.071 " stroke="none" fill="#3291c0" fill-rule="evenodd"></path></g></svg>